<svg id="efzJoMkYHtV1" xmlns="http://www.w3.org/2000/svg" xmlns:xlink="http://www.w3.org/1999/xlink" viewBox="0 0 993 323" shape-rendering="geometricPrecision" text-rendering="geometricPrecision"><defs><linearGradient id="efzJoMkYHtV7-stroke" x1="0" y1="0.5" x2="1" y2="0.5" spreadMethod="pad" gradientUnits="objectBoundingBox" gradientTransform="translate(0 0)"><stop id="efzJoMkYHtV7-stroke-0" offset="0%" stop-color="#000"/><stop id="efzJoMkYHtV7-stroke-1" offset="100%" stop-color="#fff"/></linearGradient><linearGradient id="efzJoMkYHtV8-fill" x1="0.5" y1="0" x2="0.5" y2="1.733" spreadMethod="pad" gradientUnits="objectBoundingBox" gradientTransform="translate(0 0)"><stop id="efzJoMkYHtV8-fill-0" offset="100%" stop-color="#2512ea"/><stop id="efzJoMkYHtV8-fill-1" offset="100%" stop-color="#f79610"/></linearGradient><linearGradient id="efzJoMkYHtV12-fill" x1="0.5" y1="0" x2="0.5" y2="1.407" spreadMethod="pad" gradientUnits="objectBoundingBox" gradientTransform="translate(0 0)"><stop id="efzJoMkYHtV12-fill-0" offset="100%" stop-color="#3a1fe6"/><stop id="efzJoMkYHtV12-fill-1" offset="100%" stop-color="#f79610"/></linearGradient><linearGradient id="efzJoMkYHtV15-fill" x1="0.5" y1="0" x2="0.5" y2="1.464" spreadMethod="pad" gradientUnits="objectBoundingBox" gradientTransform="translate(0 0)"><stop id="efzJoMkYHtV15-fill-0" offset="100%" stop-color="#301fe6"/><stop id="efzJoMkYHtV15-fill-1" offset="100%" stop-color="#f79610"/></linearGradient><linearGradient id="efzJoMkYHtV18-fill" x1="0.5" y1="0" x2="0.5" y2="1.464" spreadMethod="pad" gradientUnits="objectBoundingBox" gradientTransform="translate(0 0)"><stop id="efzJoMkYHtV18-fill-0" offset="100%" stop-color="#1b0eea"/><stop id="efzJoMkYHtV18-fill-1" offset="100%" stop-color="#f79610"/><stop id="efzJoMkYHtV18-fill-2" offset="100%" stop-color="#764b97"/></linearGradient><linearGradient id="efzJoMkYHtV20-fill" x1="0.5" y1="0" x2="0.5" y2="1.637" spreadMethod="pad" gradientUnits="objectBoundingBox" gradientTransform="translate(0 0)"><stop id="efzJoMkYHtV20-fill-0" offset="100%" stop-color="#4a1fe6"/><stop id="efzJoMkYHtV20-fill-1" offset="100%" stop-color="#f79610"/></linearGradient></defs><g transform="translate(-13710 3005)"><g><rect width="993" height="323" rx="0" ry="0" transform="translate(13710-3005)" fill="none"/><g><g><path d="M16.8,11.59l21.42-8.5h60.06L50.3,79h-59.96L26.355,21.88L55.335,18L12.7,18Zm238.98-8.5L235.515,35.22L216.72,47.92h-103.425l20.475,3.255-7.98,12.81h35.28l14.8-8.505l44.835,3.255-2.1,3.255-1.26,2L207.9,79h-151.62l3.045-4.935l6.4-10.08L80.01,41.41l14.6-8.4h82.32l7.35-11.76L208.845,18h-57.855l-14.8,8.61-44.735-3.26l1.995-3.36l4.2-6.51l6.51-10.395Zm116.925,0h151.515L531.36,18h-71.505l23.415,3.78L447.15,79h-60.06l38.535-61h-45.675l-.525-.84ZM525.69,63.99h56.8l-8.4-17.535L553.62,60.31ZM642.45,79h-170.1l85.89-58.38l9.03,11.445-6.3-13.23-7.56-15.75h52.71ZM807.09,3.085L766.35,30.7L741.99,46.765L718.785,62.2L752.07,42.985L769.29,79h-52.71l-5.25-10.92L695.37,79h-53.76l39.817-27.037L698.2,40.57l9.765-6.51l23.31-15.435-34.125,19.74-3.045-6.3h.1L687.81,18.94L680.25,3.085h52.815L738,13.48L753.435,3.085Z" transform="translate(13804.390625-2924)" fill="#fff" stroke="url(#efzJoMkYHtV7-stroke)"/><path d="M38.22,3.085L16.8,11.59L12.705,18h42.63l-28.98,3.88L-9.66,79h59.955L98.28,3.085h-60.06m65.94,0l-6.51,10.4-4.2,6.51-1.995,3.36l44.73,3.255L150.99,18h57.855l-24.57,3.255-7.35,11.76h-82.325L80.01,41.41L65.73,63.985l-6.405,10.08L56.28,79h151.62l9.45-15.015l1.26-2l2.1-3.255-44.835-3.25-14.805,8.505h-35.28l7.98-12.81L113.3,47.92h103.42l18.8-12.7L255.78,3.085h-151.62m269.545,0l6.72,14.07.525.84h45.675L388.09,79h60.06l36.12-57.225L460.855,18h71.505L525.22,3.09h-151.52m180.705,0l7.56,15.75l6.3,13.23-9.025-11.45L473.35,79h169.26l.634-.43L607.12,3.085h-52.71m29.085,60.9h-56.805l27.93-3.675l20.475-13.86l8.4,17.535m97.755-60.9l7.56,15.855l6.405,13.125h-.1l3.045,6.3l34.125-19.74L708.97,34.06l-9.77,6.51-55.961,38l.206.43h52.92l15.96-10.92L717.58,79h52.71L753.07,42.985L719.785,62.2L742.99,46.765L767.35,30.7L808.09,3.085h-53.655L739,13.48l-4.935-10.4h-52.815m-643.8-4h225.582L238.451,38.059l-.7.47L217.945,51.92h-35.865l45.648,3.314-5.752,8.917-1.245,1.97L210.109,83h-227.02L21.554,21.995h-16.154L14.125,8.348ZM179.088,21.99h-27.019l-12.063,7.02h34.7Zm-64.967,7.02L87.834,27.1l-5.161,8.165L93.536,29.01Zm59.921,22.91h-36.023l-5.024,8.065h27.005ZM367.361,-0.915h160.378l10.971,22.91h-49.849L450.355,83h-69.523l38.535-61.005h-40.634l-1.82-2.912Zm180.692,0h61.587l1.088,2.273l34.116,71.289l49.268-33.455-5.379-11.128h.078l-3.613-7.4-10.287-21.579h61.682l4.026,8.481l12.595-8.481h67.906L769.552,34.039L757.14,42.225L776.636,83h-61.571l-4.321-8.988L697.608,83h-237.259l96.5-65.591Zm29.09,60.9l-3.651-7.62-11.257,7.62Z" transform="translate(13804.390625-2924)" fill="url(#efzJoMkYHtV8-fill)"/><g transform="translate(-1603.844971 289.415009)"><g transform="translate(-.185 0)"><path d="M34.967,0h21.758L21.757,55.171h-21.757Z" transform="translate(15672.637695-3188.584961)" fill="#fff"/><path d="M34.967,0L0,55.171h21.757L56.725,0h-21.758m-1.65-3h28.861L23.408,58.171h-28.861Z" transform="translate(15672.637695-3188.584961)" fill="url(#efzJoMkYHtV12-fill)"/></g><g transform="translate(-3 3)"><path d="M6.766,4h12.968L12.968,14.713h-12.968Z" transform="translate(15671.265625-3185.077881)" fill="#fff"/><path d="M6.766,4L0,14.713h12.968L19.734,4L6.766,4M5.113,1h20.064L14.622,17.713h-20.065Z" transform="translate(15671.265625-3185.077881)" fill="url(#efzJoMkYHtV15-fill)"/></g><g transform="translate(42.734001 26)"><path d="M6.766,4h12.968L12.968,14.713h-12.968Z" transform="translate(15671.265625-3185.077881)" fill="#fff"/><path d="M6.766,4L0,14.713h12.968L19.734,4L6.766,4M5.113,1h20.064L14.622,17.713h-20.065Z" transform="translate(15671.265625-3185.077881)" fill="url(#efzJoMkYHtV18-fill)"/></g></g></g></g></g><path d="M214.09,60c12.42,0,21.36-9.6,21.36-22.26s-8.76-21.36-21.36-21.36h-10.62c-12.18,0-21.18,8.52-21.18,21.36c0,12.66,9,22.26,21.18,22.26Zm-10.62-7.62c-7.86,0-13.56-6.06-13.56-14.28c0-8.28,5.76-14.1,13.56-14.1h10.62c8.04,0,13.74,5.88,13.74,14.1s-5.7,14.28-13.74,14.28Zm75.9,6.54c.887053.996675,2.146267,1.58286,3.48,1.62c2.22,0,3.78-1.68,3.78-4.56v-39.96h-7.26v31.92L248.59,17.4c-.804296-.963167-1.985492-1.53189-3.24-1.56-2.4,0-3.9,1.74-3.9,4.56v39.6h7.26v-31.92ZM344.41,60c8.52,0,14.04-5.22,14.04-13.2c0-5.1-2.88-8.58-6.84-9.84c3.24-1.02,6.06-3.78,6.06-9.3c0-7.44-5.64-11.28-14.16-11.28h-31.92v43.62Zm-.3-18.96c4.26,0,6.6,2.04,6.6,5.64c0,4.26-3.96,5.76-9.42,5.76h-22.08v-28.44h21.42c5.64,0,9.3.72,9.3,5.34c0,3.78-2.04,5.28-6.36,5.28h-18.84v6.42Zm60-.3c0,8.76-3.9,12.36-15.9,12.36s-15.9-3.6-15.9-12.36v-24.36h-7.86v24.36c0,13.5,6.72,19.86,23.52,19.86c16.92,0,23.58-6.36,23.58-19.86v-24.36h-7.44ZM446.23,60v-16.56l23.22-27.06h-9.72l-17.04,20.1-16.98-20.1h-10.26l23.16,27.06v16.56Zm85.44,0v-7.62h-7.86v-11.4h5.16v-6.36h-23.28c-4.26,0-6.36-1.92-6.36-5.28c0-3.54,2.1-5.4,6.18-5.4h8.52v-7.56h-8.28c-8.52,0-14.1,3.84-14.1,11.28c0,5.52,2.76,8.28,6,9.3-4.211276,1.362561-7.004828,5.356851-6.84,9.78c0,8.04,5.4,13.26,14.04,13.26Zm-15.48-7.62h-10.08c-4.86,0-7.62-2.1-7.62-5.82c0-4.26,2.76-5.58,7.74-5.58h9.96ZM587.53,60c9.12,0,13.56-5.46,13.56-12.78c0-8.46-4.74-12.6-13.56-12.6h-19.98c-3.36,0-5.46-1.98-5.46-5.28s2.04-5.34,5.52-5.34h31.32v-7.62h-31.32c-8.7,0-13.44,5.22-13.44,12.24c0,7.2,5.1,12.42,13.32,12.42h20.04c4.08,0,6.36,1.92,6.36,5.64c0,3.42-2.28,5.7-6.36,5.7h-32.7v7.62Zm59.1,0v-7.62h-31.44v-28.38h31.38v-7.62h-38.94v43.62Zm-1.68-18.96v-6.42h-24.18v6.42ZM690.13,60v-7.62h-29.34v-36h-7.62v43.62Zm42.42,0v-7.62h-29.34v-36h-7.62v43.62Z" transform="translate(13734-2825)" fill="#fff"/><path d="M387.97,60.6c16.92,0,23.58-6.36,23.58-19.86v-24.36h-7.44v24.36c0,8.76-3.9,12.36-15.9,12.36s-15.9-3.6-15.9-12.36v-24.36h-7.86v24.36c0,13.5,6.72,19.86,23.52,19.86m-105.12-.06c2.22,0,3.78-1.68,3.78-4.56v-39.96h-7.26v31.92L248.59,17.4c-.804296-.963167-1.985492-1.53189-3.24-1.56-2.4,0-3.9,1.74-3.9,4.56v39.6h7.26v-31.92l30.66,30.84c.887053.996675,2.146267,1.58286,3.48,1.62M732.55,60v-7.62h-29.34v-36h-7.62v43.62h36.96m-42.42,0v-7.62h-29.34v-36h-7.62v43.62h36.96m-43.5,0v-7.62h-31.44v-28.38h31.38v-7.62h-38.94v43.62h39m-59.1,0c9.12,0,13.56-5.46,13.56-12.78c0-8.46-4.74-12.6-13.56-12.6h-19.98c-3.36,0-5.46-1.98-5.46-5.28s2.04-5.34,5.52-5.34h31.32v-7.62h-31.32c-8.7,0-13.44,5.22-13.44,12.24c0,7.2,5.1,12.42,13.32,12.42h20.04c4.08,0,6.36,1.92,6.36,5.64c0,3.42-2.28,5.7-6.36,5.7h-32.7v7.62h32.7m-55.86,0v-7.62h-7.86v-11.4h5.16v-6.36h-23.28c-4.26,0-6.36-1.92-6.36-5.28c0-3.54,2.1-5.4,6.18-5.4h8.52v-7.56h-8.28c-8.52,0-14.1,3.84-14.1,11.28c0,5.52,2.76,8.28,6,9.3-4.211276,1.362561-7.004828,5.356851-6.84,9.78c0,8.04,5.4,13.26,14.04,13.26h26.82M506.23,40.98h9.96v11.4h-10.08c-4.86,0-7.62-2.1-7.62-5.82c0-4.26,2.76-5.58,7.74-5.58M446.23,60v-16.56l23.22-27.06h-9.72l-17.04,20.1-16.98-20.1h-10.26l23.16,27.06v16.56h7.62M344.41,60c8.52,0,14.04-5.22,14.04-13.2c0-5.1-2.88-8.58-6.84-9.84c3.24-1.02,6.06-3.78,6.06-9.3c0-7.44-5.64-11.28-14.16-11.28h-31.92v43.62h32.82m-25.2-36h21.42c5.64,0,9.3.72,9.3,5.34c0,3.78-2.04,5.28-6.36,5.28h-18.84v6.42h19.38c4.26,0,6.6,2.04,6.6,5.64c0,4.26-3.96,5.76-9.42,5.76h-22.08v-28.44M214.09,60c12.42,0,21.36-9.6,21.36-22.26s-8.76-21.36-21.36-21.36h-10.62c-12.18,0-21.18,8.52-21.18,21.36c0,12.66,9,22.26,21.18,22.26h10.62M203.47,24h10.62c8.04,0,13.74,5.88,13.74,14.1s-5.7,14.28-13.74,14.28h-10.62c-7.86,0-13.56-6.06-13.56-14.28c0-8.28,5.76-14.1,13.56-14.1M644.95,41.04v-6.42h-24.18v6.42h24.18M387.97,63.6c-3.888731.072586-7.770092-.367194-11.544-1.308-3.115151-.771024-6.014877-2.238495-8.481-4.292-4.37-3.789-6.495-9.435-6.495-17.259v-27.361h13.86v27.36c0,4.652,1.247,6.254,2.333,7.129c1.862,1.5,5.319,2.231,10.567,2.231s8.705-.73,10.567-2.231c1.086-.875,2.333-2.477,2.333-7.129v-27.36h25.99l15.591,18.456L458.34,13.38h17.637L449.23,44.551v18.449h-13.62v-18.451L414.55,19.942v20.8c0,7.833-2.12,13.479-6.48,17.259-2.471437,2.056585-5.377975,3.524558-8.5,4.293-3.792956.940517-7.692869,1.379594-11.6,1.306Zm-105.12-.06c-2.130228-.031437-4.154367-.935071-5.6-2.5l-.006-.006L251.71,35.353v27.647h-13.26v-25.26c.110803,6.640251-2.342656,13.067597-6.85,17.945-4.574372,4.754222-10.913039,7.402272-17.51,7.315h-10.62c-6.543462.069314-12.821957-2.581372-17.336-7.319-4.499034-4.880529-6.949413-11.304001-6.844-17.941-.027805-3.371885.585757-6.718309,1.808-9.861c2.293698-5.868115,6.951249-10.499895,12.832-12.761c3.043445-1.170423,6.27933-1.759938,9.54-1.738h10.62c3.329934-.026126,6.635287.571856,9.745,1.763c5.902178,2.264783,10.56848,6.924181,12.842,12.823c1.198221,3.118121,1.799663,6.433685,1.773,9.774v-17.34c-.064847-1.919071.564274-3.797205,1.772-5.29c1.288498-1.479177,3.16674-2.310614,5.128-2.27c2.046258.022998,3.988684.904765,5.353,2.43v0L276.37,40.737v-27.717h13.26v42.96c.064827,1.926476-.566355,3.811857-1.778,5.311-1.250911,1.454887-3.083515,2.278863-5.002,2.249ZM203.47,27c-6.218,0-10.56,4.564-10.56,11.1-.077685,3.005117.999963,5.925611,3.011,8.16.92594.980438,2.045183,1.758154,3.287,2.284c1.349681.563467,2.79947.847846,4.262.836h10.62c2.896193.079694,5.693797-1.055156,7.716-3.13c2.020409-2.225582,3.103707-5.145185,3.024-8.15.014556-1.566823-.26144-3.122772-.814-4.589-.489139-1.286817-1.234539-2.460881-2.191-3.451-2.046595-2.042168-4.845186-3.149302-7.735-3.06ZM735.55,63h-85.38v-49.62h13.62v36h28.8v-36h13.62v36h29.34Zm-85.92,0h-45v-49.62h44.94v13.62h-31.38v4.62h29.76v12.42h-29.76v5.34h31.44Zm-62.1,0h-35.7v-13.62h35.7c3.36,0,3.36-1.962,3.36-2.7c0-1.41-.471-1.822-.625-1.957-.810178-.525867-1.772714-.766237-2.735-.683h-20.04c-2.243833.020819-4.473614-.356002-6.586-1.113-1.948467-.703547-3.729944-1.80335-5.232-3.23-1.461394-1.400023-2.606646-3.096251-3.359-4.975-1.504084-3.880067-1.52509-8.178418-.059-12.073.727671-1.86851,1.853799-3.555995,3.3-4.945c2.945-2.829,7.116-4.324,12.061-4.324h34.32v13.62h-34.325c-.704831-.052166-1.404599.153607-1.969.579-.400593.49575-.597583,1.125333-.551,1.761-.045273.620633.151072,1.234748.548,1.714.548057.413397,1.227225.614448,1.912.566h19.98c5.2,0,9.273,1.317,12.112,3.914c2.951,2.7,4.448,6.631,4.448,11.686.150254,4.161316-1.371211,8.209672-4.225,11.242-1.504889,1.508585-3.325596,2.664671-5.331,3.385-2.248435.794245-4.619616,1.18459-7.004,1.153Zm-52.86,0h-29.82c-5.008,0-9.271-1.536-12.327-4.441-1.544048-1.47177-2.746617-3.264189-3.523-5.251-.807621-2.094582-1.21107-4.323219-1.189-6.568-.038723-2.889562.851284-5.71522,2.539-8.061.47502-.647254,1.010787-1.247648,1.6-1.793-.339373-.353003-.654112-.728887-.942-1.125-1.632263-2.378231-2.45874-5.217273-2.358-8.1-.160993-4.201947,1.709865-8.224645,5.027-10.809c1.637264-1.226858,3.496426-2.125368,5.475-2.646c2.153026-.569848,4.372951-.847339,6.6-.825h11.28v13.559h-11.522c-.925647-.08523-1.85371.13537-2.642.628-.41828.489969-.613265,1.132185-.538,1.772c0,1.167.4,1.5.527,1.615.84015.539943,1.840352.774724,2.833.665h26.28v12.36h-5.16v5.4h7.86ZM506.23,43.98c-2.5,0-3.6.38-4.09.7-.211.139-.65.427-.65,1.88-.081387.73653.223864,1.462778.807,1.92c1.14975.681152,2.480018.995141,3.813.9h7.08v-5.4ZM344.41,63h-35.82v-49.62h34.92c2.226935-.021456,4.446698.255678,6.6.824c1.982771.52003,3.846982,1.416657,5.491,2.641c3.337593,2.574426,5.225694,6.602798,5.069,10.815.099521,2.893789-.742652,5.741738-2.4,8.116-.28483.386942-.595188.754426-.929,1.1c2.708861,2.579849,4.20129,6.184344,4.109,9.924.020708,2.241771-.391499,4.466465-1.214,6.552-.790911,1.979187-2.004124,3.761979-3.555,5.224-3.36606,3.003127-7.762993,4.588331-12.271,4.424Zm-22.2-13.56h19.08c3,0,4.554-.5,5.327-.919.729365-.306737,1.172898-1.053804,1.093-1.841.096743-.700097-.1475-1.404199-.657-1.894-.871059-.568309-1.906402-.83075-2.943-.746h-21.9Zm0-17.82h21.36c2.009,0,2.708-.389,2.916-.557.367-.3.444-1.1.444-1.723c0-1.308-.391-1.491-.806-1.685-1.256-.587-3.737-.655-5.494-.655h-18.42Z" transform="translate(13734-2825)" fill="url(#efzJoMkYHtV20-fill)"/></g></svg>