<svg id="eh8Vu3ZqYLU1" xmlns="http://www.w3.org/2000/svg" xmlns:xlink="http://www.w3.org/1999/xlink" viewBox="0 0 472 200" shape-rendering="geometricPrecision" text-rendering="geometricPrecision"><defs><linearGradient id="eh8Vu3ZqYLU6-fill" x1="0.528" y1="0" x2="0.5" y2="1.644" spreadMethod="pad" gradientUnits="objectBoundingBox" gradientTransform="translate(0 0)"><stop id="eh8Vu3ZqYLU6-fill-0" offset="100%" stop-color="#3a1fe6"/><stop id="eh8Vu3ZqYLU6-fill-1" offset="100%" stop-color="#f79610"/></linearGradient><linearGradient id="eh8Vu3ZqYLU10-fill" x1="0.5" y1="0" x2="0.5" y2="1.407" spreadMethod="pad" gradientUnits="objectBoundingBox" gradientTransform="translate(0 0)"><stop id="eh8Vu3ZqYLU10-fill-0" offset="100%" stop-color="#2b1fe6"/><stop id="eh8Vu3ZqYLU10-fill-1" offset="100%" stop-color="#f79610"/></linearGradient><linearGradient id="eh8Vu3ZqYLU13-fill" x1="0.5" y1="0" x2="0.5" y2="1.464" spreadMethod="pad" gradientUnits="objectBoundingBox" gradientTransform="translate(0 0)"><stop id="eh8Vu3ZqYLU13-fill-0" offset="100%" stop-color="#1f28e6"/><stop id="eh8Vu3ZqYLU13-fill-1" offset="100%" stop-color="#f79610"/></linearGradient><linearGradient id="eh8Vu3ZqYLU16-fill" x1="0.5" y1="0" x2="0.5" y2="1.464" spreadMethod="pad" gradientUnits="objectBoundingBox" gradientTransform="translate(0 0)"><stop id="eh8Vu3ZqYLU16-fill-0" offset="100%" stop-color="#1f28e6"/><stop id="eh8Vu3ZqYLU16-fill-1" offset="100%" stop-color="#f79610"/></linearGradient><linearGradient id="eh8Vu3ZqYLU20-fill" x1="0.5" y1="0" x2="0.5" y2="1.535" spreadMethod="pad" gradientUnits="objectBoundingBox" gradientTransform="translate(0 0)"><stop id="eh8Vu3ZqYLU20-fill-0" offset="100%" stop-color="#1f32e6"/><stop id="eh8Vu3ZqYLU20-fill-1" offset="100%" stop-color="#f79610"/></linearGradient></defs><g transform="translate(-15739 2941)"><g transform="translate(15773.169922-2906.437988)"><g transform="translate(62.888-.682)"><path d="M180.147,4.32L159.085,37.714l-19.534,13.2h-107.493L53.338,54.3L45.044,67.615h36.668L97.1,58.776l46.6,3.383-2.183,3.383-1.31,2.073-9.822,15.606h-157.585l3.165-5.129l6.657-10.476L-2.537,44.152l15.169-8.73h85.558L105.829,23.2l25.536-3.383h-60.13L55.848,28.765L9.358,25.382l2.073-3.492L15.8,15.124l6.766-10.8Z" transform="translate(34.534 3.514)" fill="#fff"/><path d="M19.145,2.412l-6.766,10.8-4.366,6.77L5.94,23.474l46.489,3.383l15.387-8.949h60.131l-25.536,3.383-7.639,12.223h-85.558l-15.169,8.73L-20.8,65.708l-6.657,10.476-3.165,5.129h157.587L138.1,63.634l2.183-3.383-46.6-3.383-15.387,8.84h-36.671l8.294-13.314-21.28-3.383h107.493l19.534-13.2L176.728,2.412h-157.583M16.879,-1.68h167.269L158.67,38.72L137.385,53.1h-39.047l49.121,3.566-7.213,11.224-11.021,17.516h-167.177l7.016-11.37l6.686-10.522L-8.873,39.2L8.12,29.422h23.165L-0.958,27.076l5.452-9.183L8.94,11ZM97.141,22h-28.221L56.16,29.422h36.34ZM92.019,53.1h-37.719L49,61.615h28.2Z" transform="translate(37.952 5.421)" fill="url(#eh8Vu3ZqYLU6-fill)"/><g transform="translate(-15461.294922 3220.224121)"><g transform="translate(-.185 0)"><path d="M34.967,0h21.758L21.757,55.171h-21.757Z" transform="translate(15672.637695-3188.584961)" fill="#fff"/><path d="M34.967,0L0,55.171h21.757L56.725,0h-21.758m-1.65-3h28.861L23.408,58.171h-28.861Z" transform="translate(15672.637695-3188.584961)" fill="url(#eh8Vu3ZqYLU10-fill)"/></g><g transform="translate(-3 3)"><path d="M6.766,4h12.968L12.968,14.713h-12.968Z" transform="translate(15671.265625-3185.077881)" fill="#fff"/><path d="M6.766,4L0,14.713h12.968L19.734,4L6.766,4M5.113,1h20.064L14.622,17.713h-20.065Z" transform="translate(15671.265625-3185.077881)" fill="url(#eh8Vu3ZqYLU13-fill)"/></g><g transform="translate(42.734001 26)"><path d="M6.766,4h12.968L12.968,14.713h-12.968Z" transform="translate(15671.265625-3185.077881)" fill="#fff"/><path d="M6.766,4L0,14.713h12.968L19.734,4L6.766,4M5.113,1h20.064L14.622,17.713h-20.065Z" transform="translate(15671.265625-3185.077881)" fill="url(#eh8Vu3ZqYLU16-fill)"/></g></g></g></g><rect width="472" height="200" rx="0" ry="0" transform="translate(15739-2941)" fill="none"/><g transform="translate(451.744995 17)"><path d="M148.72,30l-6.57-6.63c2.82-1.08,4.5-3.63,4.5-7.23c0-4.86-2.94-7.95-7.92-7.95h-15.66v21.81h3.78v-18h11.88c2.61,0,4.17,1.38,4.17,4.2s-1.44,4.38-4.17,4.38h-9.09v3.36h8.16L143.32,30Zm21.48,0v-3.81h-15.72v-14.19h15.69v-3.81h-19.47v21.81Zm-.84-9.48v-3.21h-12.09v3.21ZM177.25,30v-18h14.73v-3.81h-18.51v21.81Zm13.83-9.03v-3.33h-11.04v3.33ZM213.1,30v-3.81h-14.67v-18h-3.81v21.81Zm22.23,0v-3.81h-15.72v-14.19h15.69v-3.81h-19.47v21.81Zm-.84-9.48v-3.21h-12.09v3.21ZM260.38,30v-3.81h-11.82c-3.93,0-6.78-3.03-6.78-7.14-.103922-1.852584.567736-3.664867,1.85391-5.002261s3.070861-2.079275,4.92609-2.047739h11.82v-3.81h-11.82c-6.09,0-10.59,4.26-10.59,10.68c0,6.33,4.5,11.13,10.59,11.13Zm13.89,0v-18h8.28v-3.81h-20.37v3.81h8.28v18Zm14.82,0v-21.81h-3.81v21.81Zm19.26,0c6.21,0,10.68-4.8,10.68-11.13s-4.38-10.68-10.68-10.68h-5.31c-6.09,0-10.59,4.26-10.59,10.68c0,6.33,4.5,11.13,10.59,11.13Zm-5.31-3.81c-3.93,0-6.78-3.03-6.78-7.14-.103922-1.852584.567736-3.664867,1.85391-5.002261s3.070861-2.079275,4.92609-2.047739h5.31c1.868617-.050017,3.673167.682874,4.97775,2.021639s1.990569,3.161663,1.89225,5.028361c.102339,1.876067-.579335,3.710329-1.882042,5.064233s-3.109341,2.105746-4.987958,2.075767Zm37.95,3.27c.44349.498386,1.07312.791489,1.74.81c1.11,0,1.89-.84,1.89-2.28v-19.98h-3.63v15.96L325.6,8.7c-.402148-.481583-.992746-.765945-1.62-.78-1.2,0-1.95.87-1.95,2.28v19.8h3.63v-15.96Zm23.67.54c4.56,0,6.78-2.73,6.78-6.39c0-4.23-2.37-6.3-6.78-6.3h-9.99c-.728391.074553-1.452553-.176181-1.978898-.685174s-.801204-1.224346-.751102-1.954826c-.05467-.739662.221905-1.465414.754971-1.981097s1.267585-.768055,2.005029-.688903h15.66v-3.81h-15.66c-4.35,0-6.72,2.61-6.72,6.12c0,3.6,2.55,6.21,6.66,6.21h10.02c2.04,0,3.18.96,3.18,2.82c0,1.71-1.14,2.85-3.18,2.85h-16.35v3.81Z" transform="translate(15276-2819)" fill="#fff"/><path d="M342.73,30.27c1.11,0,1.89-.84,1.89-2.28v-19.98h-3.63v15.96L325.6,8.7c-.402148-.481583-.992746-.765945-1.62-.78-1.2,0-1.95.87-1.95,2.28v19.8h3.63v-15.96l15.33,15.42c.44349.498386,1.07312.791489,1.74.81M364.66,30c4.56,0,6.78-2.73,6.78-6.39c0-4.23-2.37-6.3-6.78-6.3h-9.99c-.728391.074553-1.452553-.176181-1.978898-.685174s-.801204-1.224346-.751102-1.954826c-.05467-.739662.221905-1.465414.754971-1.981097s1.267585-.768055,2.005029-.688903h15.66v-3.81h-15.66c-4.35,0-6.72,2.61-6.72,6.12c0,3.6,2.55,6.21,6.66,6.21h10.02c2.04,0,3.18.96,3.18,2.82c0,1.71-1.14,2.85-3.18,2.85h-16.35v3.81h16.35m-56.31,0c6.21,0,10.68-4.8,10.68-11.13s-4.38-10.68-10.68-10.68h-5.31c-6.09,0-10.59,4.26-10.59,10.68c0,6.33,4.5,11.13,10.59,11.13h5.31m-5.31-18h5.31c1.868617-.050017,3.673167.682874,4.97775,2.021639s1.990569,3.161663,1.89225,5.028361c.102339,1.876067-.579335,3.710329-1.882042,5.064233s-3.109341,2.105746-4.987958,2.075767h-5.31c-3.93,0-6.78-3.03-6.78-7.14-.103922-1.852584.567736-3.664867,1.85391-5.002261s3.070861-2.079275,4.92609-2.047739M289.09,30v-21.81h-3.81v21.81h3.81m-14.82,0v-18h8.28v-3.81h-20.37v3.81h8.28v18h3.81m-13.89,0v-3.81h-11.82c-3.93,0-6.78-3.03-6.78-7.14-.103922-1.852584.567736-3.664867,1.85391-5.002261s3.070861-2.079275,4.92609-2.047739h11.82v-3.81h-11.82c-6.09,0-10.59,4.26-10.59,10.68c0,6.33,4.5,11.13,10.59,11.13h11.82m-25.05,0v-3.81h-15.72v-14.19h15.69v-3.81h-19.47v21.81h19.5M213.1,30v-3.81h-14.67v-18h-3.81v21.81h18.48m-35.85,0v-18h14.73v-3.81h-18.51v21.81h3.78m-7.05,0v-3.81h-15.72v-14.19h15.69v-3.81h-19.47v21.81h19.5m-21.48,0l-6.57-6.63c2.82-1.08,4.5-3.63,4.5-7.23c0-4.86-2.94-7.95-7.92-7.95h-15.66v21.81h3.78v-18h11.88c2.61,0,4.17,1.38,4.17,4.2s-1.44,4.38-4.17,4.38h-9.09v3.36h8.16L143.32,30h5.4m42.36-9.03v-3.33h-11.04v3.33h11.04m43.41-.45v-3.21h-12.09v3.21h12.09m-65.13,0v-3.21h-12.09v3.21h12.09M342.73,32.27c-1.198819-.014476-2.339094-.520622-3.154-1.4v0L327.66,18.888v13.112h-7.63v-7.825c-.591916,1.487669-1.461363,2.849192-2.562,4.012-2.381413,2.477004-5.682201,3.85734-9.118,3.813h-5.31c-3.409261.035405-6.680101-1.346671-9.031-3.816-1.344906-1.430185-2.343552-3.150018-2.919-5.027v8.843h-7.81v-18h-7.01v18h-7.81v-18h-19.9c-1.278679-.036682-2.515533.457408-3.417,1.365-.92269,1.000416-1.412607,2.324953-1.363,3.685c0,3.026,1.966,5.14,4.78,5.14h13.82v7.81h-13.82c-3.409261.035405-6.680101-1.346671-9.031-3.816-.894287-.946573-1.636433-2.026057-2.2-3.2v7.016h-44.709v-9.03h-13.37v9.03h-36.814l-5.52-6.06h-8.066v6.06h-7.78v-25.81h17.66c2.691386-.109938,5.311056.883319,7.253,2.75c1.811659,1.949497,2.771494,4.540728,2.667,7.2.048433,1.980836-.472139,3.934022-1.5,5.628-.480878.761095-1.079683,1.44091-1.774,2.014l3.326,3.356v-20.948h51.73v18h13.4v-18h23.468v6.682c.574729-1.17739,1.343459-2.24969,2.274-3.172c2.412469-2.313597,5.644085-3.575891,8.986-3.51h42.53v8.4q.136-.426.3-.839c.597396-1.5205,1.504622-2.900069,2.664-4.051c2.412469-2.313597,5.644085-3.575891,8.986-3.51h5.31c1.727426-.013121,3.442014.297574,5.055.916c3.012393,1.156958,5.410878,3.510189,6.625,6.5v-3.406c-.03294-1.078963.324631-2.133567,1.007-2.97.738451-.85172,1.816938-1.331617,2.944-1.31c1.155865.007795,2.255155.501369,3.029,1.36v0l11.98,11.888v-13.158h7.63v4.99c.387985-.94323.966762-1.796074,1.7-2.505c1.743252-1.570847,4.032394-2.396474,6.377-2.3h17.66v7.805h-17.657c-.2221-.022598-.445424.029101-.635.147-.100764.154688-.144927.339466-.125.523-.018148.175472.02419.351878.12.5.181796.114179.396334.164824.61.144h9.99c2.31891-.139323,4.604229.606962,6.394,2.088c1.656488,1.628028,2.526713,3.893676,2.386,6.212.076486,2.212193-.735975,4.36291-2.256,5.972-1.757127,1.656404-4.111897,2.527712-6.524,2.414h-18.35v-2.219c-.162597.434241-.399457.836904-.7,1.19-.719735.838835-1.774823,1.314724-2.88,1.299Zm3.89-8.08h18.04c.352372.031418.704966-.057788,1-.253.139779-.166905.2055-.383567.182-.6.02427-.210451-.025975-.422752-.142-.6-.312162-.185993-.677388-.262698-1.038-.218h-10.022c-2.30705.077673-4.552644-.751995-6.255-2.311-.76174-.731844-1.362819-1.614222-1.765-2.591ZM303.04,14c-1.278679-.036682-2.515533.457408-3.417,1.365-.92269,1.000416-1.412607,2.324953-1.363,3.685c0,3.026,1.966,5.14,4.78,5.14h5.31c1.312551.039252,2.58167-.472384,3.5-1.411.920602-1.019928,1.412392-2.355606,1.373-3.729.100873-1.336623-.37376-2.652721-1.304528-3.617297s-2.229102-1.485843-3.568472-1.432703ZM221.61,24.19h15.368c-.219207-.544204-.402925-1.102039-.55-1.67h-14.818Zm-65.13,0h14.99v-10.19h-14.99v1.31h14.88v7.21h-14.88Zm-27.63-5.61h9.88c.597334.061465,1.194165-.12101,1.655-.506.384228-.545838.566327-1.208466.515-1.874.051701-.616979-.126365-1.231307-.5-1.725-.482044-.352757-1.074463-.52126-1.67-.475h-9.88Zm50.4-2.94h13.37v-1.64h-13.37Zm42.36-.33h14.79c.113321-.443634.250181-.880919.41-1.31h-15.2Z" transform="translate(15276-2819)" fill="url(#eh8Vu3ZqYLU20-fill)"/></g></g></svg>