<svg id="e7FUHTeg5Su1" xmlns="http://www.w3.org/2000/svg" xmlns:xlink="http://www.w3.org/1999/xlink" viewBox="0 0 472 202" shape-rendering="geometricPrecision" text-rendering="geometricPrecision"><defs><linearGradient id="e7FUHTeg5Su7-fill" x1="110.794097" y1="0.006245" x2="107.937919" y2="131.332349" spreadMethod="pad" gradientUnits="userSpaceOnUse" gradientTransform="translate(0 0)"><stop id="e7FUHTeg5Su7-fill-0" offset="100%" stop-color="#211fe6"/><stop id="e7FUHTeg5Su7-fill-1" offset="100%" stop-color="#f79610"/></linearGradient><linearGradient id="e7FUHTeg5Su11-fill" x1="33.820522" y1="0.001091" x2="33.820522" y2="86.06869" spreadMethod="pad" gradientUnits="userSpaceOnUse" gradientTransform="translate(0 0)"><stop id="e7FUHTeg5Su11-fill-0" offset="100%" stop-color="#1f32e6"/><stop id="e7FUHTeg5Su11-fill-1" offset="100%" stop-color="#f79610"/></linearGradient><linearGradient id="e7FUHTeg5Su14-fill" x1="15.308959" y1="-0.000695" x2="15.308959" y2="24.467136" spreadMethod="pad" gradientUnits="userSpaceOnUse" gradientTransform="translate(0 0)"><stop id="e7FUHTeg5Su14-fill-0" offset="100%" stop-color="#301fe6"/><stop id="e7FUHTeg5Su14-fill-1" offset="100%" stop-color="#f79610"/></linearGradient><linearGradient id="e7FUHTeg5Su17-fill" x1="15.308841" y1="-0.000636" x2="15.308841" y2="24.467195" spreadMethod="pad" gradientUnits="userSpaceOnUse" gradientTransform="translate(0 0)"><stop id="e7FUHTeg5Su17-fill-0" offset="100%" stop-color="#261fe6"/><stop id="e7FUHTeg5Su17-fill-1" offset="100%" stop-color="#f79610"/></linearGradient><linearGradient id="e7FUHTeg5Su20-fill" x1="15540.224989" y1="-3020.691747" x2="15540.224989" y2="-2980.606449" spreadMethod="pad" gradientUnits="userSpaceOnUse" gradientTransform="translate(0 0)"><stop id="e7FUHTeg5Su20-fill-0" offset="0%" stop-color="#e6401f"/><stop id="e7FUHTeg5Su20-fill-1" offset="100%" stop-color="#f79610"/></linearGradient><linearGradient id="e7FUHTeg5Su24-fill" x1="108.679" y1="147.2451" x2="108.679" y2="178.8789" spreadMethod="pad" gradientUnits="userSpaceOnUse" gradientTransform="translate(0 0)"><stop id="e7FUHTeg5Su24-fill-0" offset="100%" stop-color="#261fe6"/><stop id="e7FUHTeg5Su24-fill-1" offset="100%" stop-color="#f79610"/></linearGradient><linearGradient id="e7FUHTeg5Su27-fill" x1="133.2974" y1="147.2451" x2="133.2974" y2="179.3301" spreadMethod="pad" gradientUnits="userSpaceOnUse" gradientTransform="translate(0 0)"><stop id="e7FUHTeg5Su27-fill-0" offset="100%" stop-color="#1f22e6"/><stop id="e7FUHTeg5Su27-fill-1" offset="100%" stop-color="#f79610"/></linearGradient><linearGradient id="e7FUHTeg5Su30-fill" x1="156.749" y1="147.2451" x2="156.749" y2="178.8789" spreadMethod="pad" gradientUnits="userSpaceOnUse" gradientTransform="translate(0 0)"><stop id="e7FUHTeg5Su30-fill-0" offset="100%" stop-color="#2b1fe6"/><stop id="e7FUHTeg5Su30-fill-1" offset="100%" stop-color="#f79610"/></linearGradient><linearGradient id="e7FUHTeg5Su33-fill" x1="179.9346" y1="146.7939" x2="179.9346" y2="179.3301" spreadMethod="pad" gradientUnits="userSpaceOnUse" gradientTransform="translate(0 0)"><stop id="e7FUHTeg5Su33-fill-0" offset="100%" stop-color="#301fe6"/><stop id="e7FUHTeg5Su33-fill-1" offset="100%" stop-color="#f79610"/></linearGradient><linearGradient id="e7FUHTeg5Su36-fill" x1="213.5742" y1="147.2451" x2="213.5742" y2="178.8789" spreadMethod="pad" gradientUnits="userSpaceOnUse" gradientTransform="translate(0 0)"><stop id="e7FUHTeg5Su36-fill-0" offset="100%" stop-color="#2b1fe6"/><stop id="e7FUHTeg5Su36-fill-1" offset="100%" stop-color="#f79610"/></linearGradient><linearGradient id="e7FUHTeg5Su39-fill" x1="227.0215" y1="147.2451" x2="227.0215" y2="178.8789" spreadMethod="pad" gradientUnits="userSpaceOnUse" gradientTransform="translate(0 0)"><stop id="e7FUHTeg5Su39-fill-0" offset="100%" stop-color="#1f2de6"/><stop id="e7FUHTeg5Su39-fill-1" offset="100%" stop-color="#f79610"/></linearGradient><linearGradient id="e7FUHTeg5Su42-fill" x1="246.4527" y1="146.7939" x2="246.4527" y2="183.3456" spreadMethod="pad" gradientUnits="userSpaceOnUse" gradientTransform="translate(0 0)"><stop id="e7FUHTeg5Su42-fill-0" offset="100%" stop-color="#1f37e6"/><stop id="e7FUHTeg5Su42-fill-1" offset="100%" stop-color="#f79610"/></linearGradient><linearGradient id="e7FUHTeg5Su45-fill" x1="273.4336" y1="147.2451" x2="273.4336" y2="179.3301" spreadMethod="pad" gradientUnits="userSpaceOnUse" gradientTransform="translate(0 0)"><stop id="e7FUHTeg5Su45-fill-0" offset="100%" stop-color="#1f22e6"/><stop id="e7FUHTeg5Su45-fill-1" offset="100%" stop-color="#f79610"/></linearGradient><linearGradient id="e7FUHTeg5Su48-fill" x1="291.5957" y1="147.2451" x2="291.5957" y2="178.8789" spreadMethod="pad" gradientUnits="userSpaceOnUse" gradientTransform="translate(0 0)"><stop id="e7FUHTeg5Su48-fill-0" offset="100%" stop-color="#301fe6"/><stop id="e7FUHTeg5Su48-fill-1" offset="100%" stop-color="#f79610"/></linearGradient><linearGradient id="e7FUHTeg5Su51-fill" x1="310.9478" y1="147.04" x2="310.9478" y2="179.125" spreadMethod="pad" gradientUnits="userSpaceOnUse" gradientTransform="translate(0 0)"><stop id="e7FUHTeg5Su51-fill-0" offset="100%" stop-color="#2b1fe6"/><stop id="e7FUHTeg5Su51-fill-1" offset="100%" stop-color="#f79610"/></linearGradient><linearGradient id="e7FUHTeg5Su54-fill" x1="328.7002" y1="147.2451" x2="328.7002" y2="178.8789" spreadMethod="pad" gradientUnits="userSpaceOnUse" gradientTransform="translate(0 0)"><stop id="e7FUHTeg5Su54-fill-0" offset="100%" stop-color="#1f32e6"/><stop id="e7FUHTeg5Su54-fill-1" offset="100%" stop-color="#f79610"/></linearGradient><linearGradient id="e7FUHTeg5Su57-fill" x1="343.7881" y1="147.2451" x2="343.7881" y2="178.8789" spreadMethod="pad" gradientUnits="userSpaceOnUse" gradientTransform="translate(0 0)"><stop id="e7FUHTeg5Su57-fill-0" offset="100%" stop-color="#1f22e6"/><stop id="e7FUHTeg5Su57-fill-1" offset="100%" stop-color="#f79610"/></linearGradient><linearGradient id="e7FUHTeg5Su60-fill" x1="366.5133" y1="147.2451" x2="366.5133" y2="178.8789" spreadMethod="pad" gradientUnits="userSpaceOnUse" gradientTransform="translate(0 0)"><stop id="e7FUHTeg5Su60-fill-0" offset="100%" stop-color="#261fe6"/><stop id="e7FUHTeg5Su60-fill-1" offset="100%" stop-color="#f79610"/></linearGradient></defs><g transform="translate(-15302 3303.351074)"><rect width="472" height="202" rx="0" ry="0" transform="translate(15302-3303.4)" fill="none"/><g transform="translate(15391.827148-3266.301025)"><g transform="translate(7.441 0)"><path d="M213.5,3.4L192.4,36.8L181,44.5l-.4,10.9-7.1,11.2-9.8,15.6h-157.5L16,66.7l15.5-8.8L78,61.2l-2.2,3.4-1.3,2.1h36.7L121.7,50h-48.8l9.9-15.5h48.8l7.6-12.2l25.5-3.4h-60.1L89.2,27.8L42.7,24.4l2.1-3.5l4.4-6.8L56,3.3l157.5.1Z" fill="#fff"/><path d="M55.9,3.4L49.1,14.2L44.8,21l-2.1,3.5l46.5,3.4L104.6,19h60.1l-25.5,3.4-7.6,12.2h-48.8L72.9,50h48.9L111.2,66.7h-36.7l1.3-2.1L78,61.2L31.5,57.8L16,66.7L6.2,82.3h157.6l9.8-15.6l7.1-11.2.4-10.9l11.4-7.7L213.6,3.5h-157.7M54.1,0h165.7L195,39.2l-10.5,7.2-.4,10.1-7.6,12v0L165.7,85.7L0,85.7L13.6,64.1l17.1-9.8l53.3,4-3.2,5h28.6l6.3-9.9h-49.1L80.9,31.1h5.9L37,27.5l4.9-8.3l4.4-6.8L54.1,0Zm81.1,22.3h-29.6L90.5,31.1h39.2l5.5-8.8Z" fill="url(#e7FUHTeg5Su7-fill)"/></g><g transform="translate(208.968002 23.533001)"><g transform="translate(4.178 0)"><path d="M40.4,3h21.8l-35,55.2h-21.7L40.4,3Z" fill="#fff"/><path d="M40.4,3L5.4,58.2h21.8L62.2,3h-21.8M38.8,0h28.9L28.9,61.2h-28.9L38.8,0Z" fill="url(#e7FUHTeg5Su11-fill)"/></g><g transform="translate(0 10.507)"><path d="M12.2,3h13L18.4,13.7h-13L12.2,3Z" fill="#fff"/><path d="M12.2,3L5.4,13.7h13c0,0,8.63123-7.366489,6.8-10.7-1.87775-3.418195-13,0-13,0M10.6,0h20.1L20.1,16.7h-20.1L10.6,0Z" fill="url(#e7FUHTeg5Su14-fill)"/></g><g transform="translate(45.734001 33.507)"><path d="M12.2,3h13L18.4,13.7h-13L12.2,3Z" fill="#fff"/><path d="M12.2,3L5.4,13.7h13L25.2,3h-13M10.6,0h20.1L20.1,16.7h-20.1L10.6,0Z" fill="url(#e7FUHTeg5Su17-fill)"/></g></g></g></g><g><g><path d="M103.7,168.2l-2.9,8.7h-3.7l9.4-27.6h4.3l9.4,27.6h-3.8l-3-8.7h-9.7Zm9-2.8c1.477222-2.057648-2.7-8-2.7-8-.6-1.8-1-3.4-1.4-5h-.1c-.4,1.6-.9,3.3-1.4,5l-2.7,8c0,0,6.847857,2.022716,8.3,0Z" fill="#fff"/><path d="M110.8,149.2l9.4,27.6h-3.8l-3-8.7h-9.8l-2.9,8.7h-3.7l9.4-27.6h4.4m-6.4,16.2h8.3l-2.7-8c-.6-1.8-1-3.4-1.4-5h-.1c-.4,1.6-.9,3.3-1.4,5l-2.7,8m7.8-18.2h-1.4-4.3-1.4l-.5,1.4-9.4,27.6-.9,2.6h2.8h3.7h1.4l.5-1.4l2.4-7.3h6.9l2.5,7.3.5,1.4h1.4h3.8h2.8l-.9-2.6-9.4-27.6-.5-1.4v0Zm-5,16.2l1.4-4l1.4,4h-2.8v0Z" fill="url(#e7FUHTeg5Su24-fill)"/></g><g><path d="M126.7,149.2v16.4c0,6.2,2.7,8.8,6.4,8.8c4.1,0,6.7-2.7,6.7-8.8v-16.4h3.6v16.1c0,8.5-10.5,12-10.5,12s-9.9-3.2-9.9-11.8v-16.3h3.7Z" fill="#fff"/><path d="M143.5,149.2v16.1c0,8.5-4.5,12-10.5,12-5.7,0-9.9-3.2-9.9-11.8v-16.3h3.6v16.4c0,6.2,2.7,8.8,6.4,8.8c4.1,0,6.7-2.7,6.7-8.8v-16.4h3.7m2-2h-2-3.6-2c0,0,0,1.4,0,2c0,4.92,0,16.4,0,16.4c0,6.8-3.4,6.8-4.7,6.8-2.9,0-4.4-2.3-4.4-6.8v-16.4-2h-2-3.6-2v2v16.3c0,8.8,4.3,13.8,11.9,13.8c7.8,0,12.5-5.2,12.5-14v-16.1-2h-.1Z" fill="url(#e7FUHTeg5Su27-fill)"/></g><g><path d="M154.9,152.3h-8.4v-3h20.5v3h-8.4v24.6h-3.6v-24.6Z" fill="#fff"/><path d="M167,149.2v3h-8.4v24.6h-3.6v-24.6h-8.4v-3h20.4m2-2h-2-20.5-2v2v3v2h2h6.4v22.6v2h2h3.6h2v-2-22.6h6.4h2v-2-3-2h.1Z" fill="url(#e7FUHTeg5Su30-fill)"/></g><g><path d="M192.6,162.8c0,9.5-5.8,14.6-12.8,14.6-7.3,0-12.4-5.7-12.4-14c0-8.8,5.5-14.5,12.8-14.5c7.5-.1,12.4,5.7,12.4,13.9Zm-21.5.4c0,5.9,3.2,11.2,8.8,11.2c5.7,0,8.9-5.2,8.9-11.5c0-5.5-2.9-11.2-8.8-11.2s-8.9,5.5-8.9,11.5Z" fill="#fff"/><path d="M180.1,148.8c7.5,0,12.4,5.8,12.4,14c0,9.5-5.8,14.6-12.8,14.6-7.3,0-12.4-5.7-12.4-14c0-8.9,5.5-14.6,12.8-14.6m-.2,25.6c5.7,0,8.9-5.2,8.9-11.5c0-5.5-2.9-11.2-8.8-11.2s-8.9,5.5-8.9,11.5c0,5.9,3.2,11.2,8.8,11.2m.2-27.6c0,0-14.8,6.8-14.8,16.5c0,9.4,5.9,16,14.4,16c7.4,0,14.8-5.1,14.8-16.6.1-9.3-5.9-15.9-14.4-15.9v0Zm-.2,25.6c-4.7,0-6.8-4.8-6.8-9.2s1.8-9.5,6.9-9.5c4.7,0,6.8,4.8,6.8,9.2c0,4.8-2.1,9.5-6.9,9.5v0Z" fill="url(#e7FUHTeg5Su33-fill)"/></g><g><path d="M205.9,149.2h3.6v24.6h11.8v3h-15.4v-27.6Z" fill="#fff"/><path d="M209.5,149.2v24.6h11.8v3h-15.4v-27.6h3.6m2-2h-2-3.6-2v2v27.6v2h2h15.4h2v-2-3-2h-2-9.8v-22.6-2v0Z" fill="url(#e7FUHTeg5Su36-fill)"/></g><g><path d="M228.8,149.2v27.6h-3.6v-27.6h3.6Z" fill="#fff"/><path d="M228.8,149.2v27.6h-3.6v-27.6h3.6m2-2c-.6,0-2,0-2,0h-3.6-2v2v27.6v2h2h3.6h2v-2-27.6-2c0,0,0,0,0,0Z" fill="url(#e7FUHTeg5Su39-fill)"/></g><g><path d="M257.8,180.9c-3.7-1-7.4-2.1-10.6-3.2-.6-.2-1.1-.4-1.7-.4-6.6-.2-12.2-5.1-12.2-14s5.4-14.6,12.9-14.6s12.4,5.8,12.4,14c0,7.1-3.3,11.6-7.9,13.2v.2c2.7.7,5.7,1.4,8.1,1.8l-1,3Zm-2.9-18c0-5.5-2.9-11.2-8.7-11.2-6,0-9,5.6-8.9,11.6c0,5.9,3.2,11.2,8.8,11.2c5.6-.1,8.8-5.2,8.8-11.6Z" fill="#fff"/><path d="M246.3,148.8c7.5,0,12.4,5.8,12.4,14c0,7.1-3.3,11.6-7.9,13.2v.2c2.7.7,5.7,1.4,8.1,1.8l-1,3c-3.7-1-7.4-2.1-10.6-3.2-.6-.2-1.1-.4-1.7-.4-6.6-.2-12.2-5.1-12.2-14s5.4-14.6,12.9-14.6m-.3,25.6c5.7,0,8.9-5.2,8.9-11.5c0-5.5-2.9-11.2-8.7-11.2-6,0-9,5.6-8.9,11.6-.1,5.8,3.1,11.1,8.7,11.1m.3-27.6c0,0-14.9,6.8-14.9,16.6c0,10.7,7.1,15.7,14.1,16v0v0c.2,0,.7.2,1,.3c3.3,1.1,7,2.3,10.7,3.2l1.8.5.6-1.8l1-3l.8-2.2-2.3-.4c-1-.2-2.2-.4-3.4-.7c3.1-2.8,4.8-7.2,4.8-12.5.2-9.4-5.8-16-14.2-16v0Zm-.3,25.6c-1.6,0-3-.6-4.2-1.7-1.6-1.7-2.6-4.4-2.6-7.4c0-3.3.9-6.1,2.6-7.8c1.1-1.1,2.6-1.7,4.3-1.7c4.6,0,6.7,4.8,6.7,9.2.1,4.7-2.1,9.4-6.8,9.4v0Z" fill="url(#e7FUHTeg5Su42-fill)"/></g><g><path d="M266.9,149.2v16.4c0,6.2,2.7,8.8,6.4,8.8c4.1,0,6.7-2.7,6.7-8.8v-16.4h3.6v16.1c0,8.5-4.5,12-10.5,12-5.7,0-9.9-3.2-9.9-11.8v-16.3h3.7Z" fill="#fff"/><path d="M283.6,149.2v16.1c0,8.5-4.5,12-10.5,12-5.7,0-9.9-3.2-9.9-11.8v-16.3h3.6v16.4c0,6.2,2.7,8.8,6.4,8.8c4.1,0,6.7-2.7,6.7-8.8v-16.4h3.7m2-2h-2-3.6-2c0,0,0,1.4,0,2c0,4.92,0,16.4,0,16.4c0,6.8-3.4,6.8-4.7,6.8-2.9,0-4.4-2.3-4.4-6.8v-16.4-2h-2-3.6-2v2v16.3c0,8.8,4.3,13.8,11.9,13.8c7.8,0,12.5-5.2,12.5-14v-16.1-2h-.1Z" fill="url(#e7FUHTeg5Su45-fill)"/></g><g><path d="M293.4,149.2v27.6h-3.6v-27.6h3.6Z" fill="#fff"/><path d="M293.4,149.2v27.6h-3.6v-27.6h3.6m2-2h-2-3.6-2v2v27.6v2h2h3.6h2v-2-27.6-2v0Z" fill="url(#e7FUHTeg5Su48-fill)"/></g><g><path d="M299.6,149.6c2.2-.3,4.8-.6,7.6-.6c5.1,0,8.8,1.2,11.2,3.4c2.5,2.3,3.9,5.5,3.9,9.9c0,4.5-1.4,8.2-4,10.7-2.6,2.6-6.8,4-12.2,4-2.5,0-4.7-.1-6.5-.3v-27.1Zm3.6,24.4c.9.2,2.2.2,3.6.2c7.6,0,11.8-4.3,11.8-11.7c0-6.5-3.6-10.7-11.2-10.7-1.8,0-3.2.2-4.2.4v21.8Z" fill="#fff"/><path d="M307.2,149c5.1,0,8.8,1.2,11.2,3.4c2.5,2.3,3.9,5.5,3.9,9.9c0,4.5-1.4,8.2-4,10.7-2.6,2.6-6.8,4-12.2,4-2.5,0-4.7-.1-6.5-.3v-27.2c2.2-.2,4.8-.5,7.6-.5m-.4,25.3c7.6,0,11.8-4.3,11.8-11.7c0-6.5-3.6-10.7-11.2-10.7-1.8,0-3.2.2-4.2.4v21.7c.9.2,2.2.3,3.6.3m.4-27.3c0,0-5.3.2-7.9.6l-1.7.3v1.7v27.2v1.8l1.8.2c2,.2,4.2.3,6.7.3c5.9,0,10.6-1.6,13.6-4.6c3-2.9,4.6-7.1,4.6-12.2c0-4.8-1.5-8.6-4.5-11.4-2.9-2.6-7-3.9-12.6-3.9v0Zm-2,7c.6-.1,1.3-.1,2.2-.1c3.1,0,5.5.8,7.1,2.3c1.4,1.4,2.2,3.6,2.1,6.3c0,6.5-3.3,9.7-9.8,9.7-.3,0-.9,0-1.6,0v-18.2v0Z" fill="url(#e7FUHTeg5Su51-fill)"/></g><g><path d="M330.5,149.2v27.6h-3.6v-27.6h3.6Z" fill="#fff"/><path d="M330.5,149.2v27.6h-3.6v-27.6h3.6m2-2h-2-3.6-2c0,0,0,1.4,0,2c0,8.28,0,27.6,0,27.6v2h2h3.6h2v-2-27.6-2v0Z" fill="url(#e7FUHTeg5Su54-fill)"/></g><g><path d="M342,152.3h-8.4v-3h20.4v3h-8.4v24.6h-3.6v-24.6Z" fill="#fff"/><path d="M354,149.2v3h-8.4v24.6h-3.6v-24.6h-8.4v-3h20.4m2-2h-2-20.5-2v2v3v2h2c0,0,5.042355-1.357645,6.4,0c4.794184,4.794184,0,22.6,0,22.6v2h2h3.6h2v-2-22.6h6.4h2v-2-3-2h.1Z" fill="url(#e7FUHTeg5Su57-fill)"/></g><g><path d="M364.4,176.9v-11.7l-8.7-15.9h4.1l3.9,7.6c1.1,2.1,1.9,3.8,2.7,5.7h.1c.8-1.8,1.7-3.6,2.8-5.7l4-7.6h4.1l-9.3,15.9v11.8c0,0-2.59,0-3.7,0Z" fill="#fff"/><path d="M377.3,149.2L368,165.1v11.8h-3.6v-11.7l-8.7-15.9h4.1l3.9,7.6c1.1,2.1,1.9,3.8,2.7,5.7h.1c.8-1.8,1.7-3.6,2.8-5.7l4-7.6h4m3.4-2.1h-3.5-4.1-1.1l-.6,1.1-4,7.6-.4.8c-.2.4-.4.8-.6,1.3-.3-.6-.6-1.3-1-2l-3.9-7.6-.6-1.1h-1.2-4.1-3.4l1.6,3l8.5,15.5v11.2v2h2h3.6h2v-2-11.2l9-15.4l1.8-3.2v0Z" fill="url(#e7FUHTeg5Su60-fill)"/></g></g></svg>