<svg id="e3fy2deRAGk1" xmlns="http://www.w3.org/2000/svg" xmlns:xlink="http://www.w3.org/1999/xlink" viewBox="0 0 472 200" shape-rendering="geometricPrecision" text-rendering="geometricPrecision"><defs><linearGradient id="e3fy2deRAGk6-fill" x1="110.776114" y1="-16.453449" x2="107.919936" y2="114.872655" spreadMethod="pad" gradientUnits="userSpaceOnUse" gradientTransform="translate(0 0)"><stop id="e3fy2deRAGk6-fill-0" offset="0%" stop-color="#e6401f"/><stop id="e3fy2deRAGk6-fill-1" offset="100%" stop-color="#f79610"/></linearGradient><linearGradient id="e3fy2deRAGk10-fill" x1="163.14" y1="-37.2932" x2="134.7977" y2="85.4707" spreadMethod="pad" gradientUnits="userSpaceOnUse" gradientTransform="translate(0 0)"><stop id="e3fy2deRAGk10-fill-0" offset="100%" stop-color="#211fe6"/><stop id="e3fy2deRAGk10-fill-1" offset="100%" stop-color="#f79610"/></linearGradient><linearGradient id="e3fy2deRAGk14-fill" x1="15700.848993" y1="-3211.583485" x2="15700.848993" y2="-3125.515886" spreadMethod="pad" gradientUnits="userSpaceOnUse" gradientTransform="translate(0 0)"><stop id="e3fy2deRAGk14-fill-0" offset="100%" stop-color="#2c11dd"/><stop id="e3fy2deRAGk14-fill-1" offset="100%" stop-color="#f79610"/></linearGradient><linearGradient id="e3fy2deRAGk17-fill" x1="15681.170769" y1="-3204.0788" x2="15681.170769" y2="-3179.609298" spreadMethod="pad" gradientUnits="userSpaceOnUse" gradientTransform="translate(0 0)"><stop id="e3fy2deRAGk17-fill-0" offset="100%" stop-color="#301fe6"/><stop id="e3fy2deRAGk17-fill-1" offset="100%" stop-color="#f79610"/></linearGradient><linearGradient id="e3fy2deRAGk20-fill" x1="15681.161464" y1="-3204.078253" x2="15681.161464" y2="-3179.608751" spreadMethod="pad" gradientUnits="userSpaceOnUse" gradientTransform="translate(0 0)"><stop id="e3fy2deRAGk20-fill-0" offset="100%" stop-color="#351fe6"/><stop id="e3fy2deRAGk20-fill-1" offset="100%" stop-color="#f79610"/></linearGradient><linearGradient id="e3fy2deRAGk24-fill" x1="15522.429782" y1="-2625.022364" x2="15522.429782" y2="-2584.473741" spreadMethod="pad" gradientUnits="userSpaceOnUse" gradientTransform="translate(0 0)"><stop id="e3fy2deRAGk24-fill-0" offset="0%" stop-color="#e6401f"/><stop id="e3fy2deRAGk24-fill-1" offset="100%" stop-color="#f79610"/></linearGradient><linearGradient id="e3fy2deRAGk26-stroke" x1="171.4817" y1="115.793" x2="171.4817" y2="133.5166" spreadMethod="pad" gradientUnits="userSpaceOnUse" gradientTransform="translate(0 0)"><stop id="e3fy2deRAGk26-stroke-0" offset="100%" stop-color="#3a1fe6"/><stop id="e3fy2deRAGk26-stroke-1" offset="100%" stop-color="#f79610"/></linearGradient><linearGradient id="e3fy2deRAGk27-stroke" x1="190.9089" y1="115.793" x2="190.9089" y2="133.5166" spreadMethod="pad" gradientUnits="userSpaceOnUse" gradientTransform="translate(0 0)"><stop id="e3fy2deRAGk27-stroke-0" offset="100%" stop-color="#301fe6"/><stop id="e3fy2deRAGk27-stroke-1" offset="100%" stop-color="#f79610"/></linearGradient><linearGradient id="e3fy2deRAGk28-stroke" x1="211.6246" y1="115.4326" x2="211.6246" y2="133.5166" spreadMethod="pad" gradientUnits="userSpaceOnUse" gradientTransform="translate(0 0)"><stop id="e3fy2deRAGk28-stroke-0" offset="100%" stop-color="#351fe6"/><stop id="e3fy2deRAGk28-stroke-1" offset="100%" stop-color="#f79610"/></linearGradient><linearGradient id="e3fy2deRAGk29-stroke" x1="229.0933" y1="115.793" x2="229.0933" y2="133.5166" spreadMethod="pad" gradientUnits="userSpaceOnUse" gradientTransform="translate(0 0)"><stop id="e3fy2deRAGk29-stroke-0" offset="100%" stop-color="#261fe6"/><stop id="e3fy2deRAGk29-stroke-1" offset="100%" stop-color="#f79610"/></linearGradient><linearGradient id="e3fy2deRAGk30-stroke" x1="248.6055" y1="115.793" x2="248.6055" y2="133.5166" spreadMethod="pad" gradientUnits="userSpaceOnUse" gradientTransform="translate(0 0)"><stop id="e3fy2deRAGk30-stroke-0" offset="100%" stop-color="#2b1fe6"/><stop id="e3fy2deRAGk30-stroke-1" offset="100%" stop-color="#f79610"/></linearGradient><linearGradient id="e3fy2deRAGk31-stroke" x1="269.0171" y1="115.793" x2="269.0171" y2="133.5166" spreadMethod="pad" gradientUnits="userSpaceOnUse" gradientTransform="translate(0 0)"><stop id="e3fy2deRAGk31-stroke-0" offset="100%" stop-color="#211fe6"/><stop id="e3fy2deRAGk31-stroke-1" offset="100%" stop-color="#f79610"/></linearGradient><linearGradient id="e3fy2deRAGk32-stroke" x1="290.5569" y1="115.793" x2="290.5569" y2="133.5166" spreadMethod="pad" gradientUnits="userSpaceOnUse" gradientTransform="translate(0 0)"><stop id="e3fy2deRAGk32-stroke-0" offset="100%" stop-color="#211fe6"/><stop id="e3fy2deRAGk32-stroke-1" offset="100%" stop-color="#f79610"/></linearGradient><linearGradient id="e3fy2deRAGk33-stroke" x1="314.0645" y1="115.4326" x2="314.0645" y2="133.8525" spreadMethod="pad" gradientUnits="userSpaceOnUse" gradientTransform="translate(0 0)"><stop id="e3fy2deRAGk33-stroke-0" offset="100%" stop-color="#2b1fe6"/><stop id="e3fy2deRAGk33-stroke-1" offset="100%" stop-color="#f79610"/></linearGradient><linearGradient id="e3fy2deRAGk34-stroke" x1="140.0532" y1="144.5928" x2="140.0532" y2="162.3164" spreadMethod="pad" gradientUnits="userSpaceOnUse" gradientTransform="translate(0 0)"><stop id="e3fy2deRAGk34-stroke-0" offset="100%" stop-color="#2b1fe6"/><stop id="e3fy2deRAGk34-stroke-1" offset="100%" stop-color="#f79610"/></linearGradient><linearGradient id="e3fy2deRAGk35-stroke" x1="159.8652" y1="144.5928" x2="159.8652" y2="162.3164" spreadMethod="pad" gradientUnits="userSpaceOnUse" gradientTransform="translate(0 0)"><stop id="e3fy2deRAGk35-stroke-0" offset="100%" stop-color="#2b1fe6"/><stop id="e3fy2deRAGk35-stroke-1" offset="100%" stop-color="#f79610"/></linearGradient><linearGradient id="e3fy2deRAGk36-stroke" x1="180.4845" y1="144.5928" x2="180.4845" y2="162.6523" spreadMethod="pad" gradientUnits="userSpaceOnUse" gradientTransform="translate(0 0)"><stop id="e3fy2deRAGk36-stroke-0" offset="100%" stop-color="#261fe6"/><stop id="e3fy2deRAGk36-stroke-1" offset="100%" stop-color="#f79610"/></linearGradient><linearGradient id="e3fy2deRAGk37-stroke" x1="200.689" y1="144.5928" x2="200.689" y2="162.3164" spreadMethod="pad" gradientUnits="userSpaceOnUse" gradientTransform="translate(0 0)"><stop id="e3fy2deRAGk37-stroke-0" offset="100%" stop-color="#261fe6"/><stop id="e3fy2deRAGk37-stroke-1" offset="100%" stop-color="#f79610"/></linearGradient><linearGradient id="e3fy2deRAGk38-stroke" x1="219.697" y1="144.5928" x2="219.697" y2="162.3164" spreadMethod="pad" gradientUnits="userSpaceOnUse" gradientTransform="translate(0 0)"><stop id="e3fy2deRAGk38-stroke-0" offset="100%" stop-color="#211fe6"/><stop id="e3fy2deRAGk38-stroke-1" offset="100%" stop-color="#c87c3f"/><stop id="e3fy2deRAGk38-stroke-2" offset="100%" stop-color="#f79610"/></linearGradient><linearGradient id="e3fy2deRAGk39-stroke" x1="239.1973" y1="144.5928" x2="239.1973" y2="162.3164" spreadMethod="pad" gradientUnits="userSpaceOnUse" gradientTransform="translate(0 0)"><stop id="e3fy2deRAGk39-stroke-0" offset="100%" stop-color="#1f28e6"/><stop id="e3fy2deRAGk39-stroke-1" offset="100%" stop-color="#f79610"/></linearGradient><linearGradient id="e3fy2deRAGk40-stroke" x1="260.8452" y1="144.5928" x2="260.8452" y2="162.3164" spreadMethod="pad" gradientUnits="userSpaceOnUse" gradientTransform="translate(0 0)"><stop id="e3fy2deRAGk40-stroke-0" offset="100%" stop-color="#351fe6"/><stop id="e3fy2deRAGk40-stroke-1" offset="100%" stop-color="#f79610"/></linearGradient><linearGradient id="e3fy2deRAGk41-stroke" x1="284.2686" y1="144.2324" x2="284.2686" y2="162.6523" spreadMethod="pad" gradientUnits="userSpaceOnUse" gradientTransform="translate(0 0)"><stop id="e3fy2deRAGk41-stroke-0" offset="100%" stop-color="#2b1fe6"/><stop id="e3fy2deRAGk41-stroke-1" offset="100%" stop-color="#f79610"/></linearGradient><linearGradient id="e3fy2deRAGk42-stroke" x1="307.6562" y1="144.5928" x2="307.6562" y2="162.3164" spreadMethod="pad" gradientUnits="userSpaceOnUse" gradientTransform="translate(0 0)"><stop id="e3fy2deRAGk42-stroke-0" offset="100%" stop-color="#1f22e6"/><stop id="e3fy2deRAGk42-stroke-1" offset="100%" stop-color="#f79610"/></linearGradient><linearGradient id="e3fy2deRAGk43-stroke" x1="328.272" y1="144.2324" x2="328.272" y2="162.6523" spreadMethod="pad" gradientUnits="userSpaceOnUse" gradientTransform="translate(0 0)"><stop id="e3fy2deRAGk43-stroke-0" offset="100%" stop-color="#211fe6"/><stop id="e3fy2deRAGk43-stroke-1" offset="100%" stop-color="#f79610"/></linearGradient><linearGradient id="e3fy2deRAGk44-stroke" x1="349.3442" y1="144.5928" x2="349.3442" y2="162.3164" spreadMethod="pad" gradientUnits="userSpaceOnUse" gradientTransform="translate(0 0)"><stop id="e3fy2deRAGk44-stroke-0" offset="100%" stop-color="#3a1fe6"/><stop id="e3fy2deRAGk44-stroke-1" offset="100%" stop-color="#f79610"/></linearGradient><linearGradient id="e3fy2deRAGk45-stroke" x1="134.129" y1="173.0322" x2="134.129" y2="191.1162" spreadMethod="pad" gradientUnits="userSpaceOnUse" gradientTransform="translate(0 0)"><stop id="e3fy2deRAGk45-stroke-0" offset="100%" stop-color="#211fe6"/><stop id="e3fy2deRAGk45-stroke-1" offset="100%" stop-color="#f79610"/></linearGradient><linearGradient id="e3fy2deRAGk46-stroke" x1="156.6614" y1="173.0322" x2="156.6614" y2="191.4521" spreadMethod="pad" gradientUnits="userSpaceOnUse" gradientTransform="translate(0 0)"><stop id="e3fy2deRAGk46-stroke-0" offset="100%" stop-color="#1f28e6"/><stop id="e3fy2deRAGk46-stroke-1" offset="100%" stop-color="#f79610"/></linearGradient><linearGradient id="e3fy2deRAGk47-stroke" x1="178.3691" y1="173.3926" x2="178.3691" y2="191.1162" spreadMethod="pad" gradientUnits="userSpaceOnUse" gradientTransform="translate(0 0)"><stop id="e3fy2deRAGk47-stroke-0" offset="100%" stop-color="#1f32e6"/><stop id="e3fy2deRAGk47-stroke-1" offset="100%" stop-color="#f79610"/></linearGradient><linearGradient id="e3fy2deRAGk48-stroke" x1="211.7771" y1="173.0322" x2="211.7771" y2="191.4521" spreadMethod="pad" gradientUnits="userSpaceOnUse" gradientTransform="translate(0 0)"><stop id="e3fy2deRAGk48-stroke-0" offset="100%" stop-color="#301fe6"/><stop id="e3fy2deRAGk48-stroke-1" offset="100%" stop-color="#f79610"/></linearGradient><linearGradient id="e3fy2deRAGk49-stroke" x1="236.7063" y1="173.0322" x2="236.7063" y2="191.1162" spreadMethod="pad" gradientUnits="userSpaceOnUse" gradientTransform="translate(0 0)"><stop id="e3fy2deRAGk49-stroke-0" offset="100%" stop-color="#2b1fe6"/><stop id="e3fy2deRAGk49-stroke-1" offset="100%" stop-color="#f79610"/></linearGradient><linearGradient id="e3fy2deRAGk50-stroke" x1="258.3231" y1="173.3926" x2="258.3231" y2="191.1162" spreadMethod="pad" gradientUnits="userSpaceOnUse" gradientTransform="translate(0 0)"><stop id="e3fy2deRAGk50-stroke-0" offset="100%" stop-color="#2b1fe6"/><stop id="e3fy2deRAGk50-stroke-1" offset="100%" stop-color="#f79610"/></linearGradient><linearGradient id="e3fy2deRAGk51-stroke" x1="279.5269" y1="173.3926" x2="279.5269" y2="191.1162" spreadMethod="pad" gradientUnits="userSpaceOnUse" gradientTransform="translate(0 0)"><stop id="e3fy2deRAGk51-stroke-0" offset="100%" stop-color="#261fe6"/><stop id="e3fy2deRAGk51-stroke-1" offset="100%" stop-color="#f79610"/></linearGradient><linearGradient id="e3fy2deRAGk52-stroke" x1="297.9004" y1="173.3926" x2="297.9004" y2="191.1162" spreadMethod="pad" gradientUnits="userSpaceOnUse" gradientTransform="translate(0 0)"><stop id="e3fy2deRAGk52-stroke-0" offset="100%" stop-color="#1f32e6"/><stop id="e3fy2deRAGk52-stroke-1" offset="100%" stop-color="#f79610"/></linearGradient><linearGradient id="e3fy2deRAGk53-stroke" x1="317.0522" y1="173.3926" x2="317.0522" y2="191.1162" spreadMethod="pad" gradientUnits="userSpaceOnUse" gradientTransform="translate(0 0)"><stop id="e3fy2deRAGk53-stroke-0" offset="100%" stop-color="#301fe6"/><stop id="e3fy2deRAGk53-stroke-1" offset="100%" stop-color="#f79610"/></linearGradient><linearGradient id="e3fy2deRAGk54-stroke" x1="330.2642" y1="173.3926" x2="330.2642" y2="191.1162" spreadMethod="pad" gradientUnits="userSpaceOnUse" gradientTransform="translate(0 0)"><stop id="e3fy2deRAGk54-stroke-0" offset="100%" stop-color="#211fe6"/><stop id="e3fy2deRAGk54-stroke-1" offset="100%" stop-color="#f79610"/></linearGradient><linearGradient id="e3fy2deRAGk55-stroke" x1="344.9165" y1="173.0322" x2="344.9165" y2="191.4521" spreadMethod="pad" gradientUnits="userSpaceOnUse" gradientTransform="translate(0 0)"><stop id="e3fy2deRAGk55-stroke-0" offset="100%" stop-color="#1f37e6"/><stop id="e3fy2deRAGk55-stroke-1" offset="100%" stop-color="#f79610"/></linearGradient><linearGradient id="e3fy2deRAGk56-stroke" x1="365.748" y1="173.3926" x2="365.748" y2="191.1162" spreadMethod="pad" gradientUnits="userSpaceOnUse" gradientTransform="translate(0 0)"><stop id="e3fy2deRAGk56-stroke-0" offset="100%" stop-color="#1f28e6"/><stop id="e3fy2deRAGk56-stroke-1" offset="100%" stop-color="#f79610"/></linearGradient></defs><g transform="translate(-16339 2941)"><g transform="translate(16403.855469-2906.989014)"><g><g><path d="M252,-16.8c-1,1.6-3.1,5.1-6.5,10.5s-6,9.6-7.9,12.5h-.4L144.5,69.3h-80L157,6.5l47.2-6.2h-75.7L118.4,6.1L58.6,9.9C60.5,7,63.3,2.5,67,-3.4c3.7-6,6.5-10.4,8.4-13.3h176.6Z" fill="#fff"/><path d="M244.8,-12.8c-.8,1.3-1.7,2.7-2.7,4.3-3,4.7-5.4,8.5-7.2,11.4L143.3,65.2h-65.7l80.9-55l46.3-6.1-.5-8h-75.7-1.1l-.9.5L117.3,2l-51,3.4c1.2-2,2.6-4.2,4.2-6.7c3-4.8,5.4-8.6,7.2-11.5h167.1m7.2-4h-176.5c-1.9,2.9-4.7,7.4-8.4,13.3-3.7,6-6.5,10.4-8.4,13.3L118.6,6l10.1-5.8h75.7L157.2,6.4L64.6,69.3h80L237.3,6.2h.4c1.8-2.9,4.4-7.1,7.9-12.5c3.3-5.4,5.5-8.9,6.4-10.5v0Z" fill="url(#e3fy2deRAGk10-fill)"/></g></g><g transform="translate(-15429.091797 3218.658936)"><g transform="translate(-.185 0)"><path d="M15707.6,-3208.6h21.8l-35,55.2h-21.8l35-55.2Z" fill="#fff"/><path d="M15707.6,-3208.6l-35,55.2h21.8l35-55.2h-21.8m-1.6-3h28.9l-38.8,61.2h-28.9l38.8-61.2Z" fill="url(#e3fy2deRAGk14-fill)"/></g><g transform="translate(-3 3)"><path d="M15678,-3201.1h13l-6.8,10.7h-13l6.8-10.7Z" fill="#fff"/><path d="M15678,-3201.1l-6.8,10.7h13l6.8-10.7h-13m-1.6-3h20.1l-10.6,16.7h-20.1l10.6-16.7Z" fill="url(#e3fy2deRAGk17-fill)"/></g><g transform="translate(42.734001 26)"><path d="M15678,-3201.1h13l-6.8,10.7h-13l6.8-10.7Z" fill="#fff"/><path d="M15678,-3201.1l-6.8,10.7h13l6.8-10.7h-13m-1.6-3h20.1l-10.6,16.7h-20.1l10.6-16.7Z" fill="url(#e3fy2deRAGk20-fill)"/></g></g></g><rect width="472" height="200" rx="0" ry="0" transform="translate(16339-2941)" fill="none"/></g><g><path d="M174,116.5c1.2,0,2.1.2,2.9.5s1.4.7,2,1.3s1,1.2,1.3,2s.5,1.5.5,2.4c0,.7-.1,1.4-.4,2.1-.2.7-.6,1.3-1,1.8-.6.7-1.3,1.2-2.1,1.6s-1.9.6-3.1.6h-7.5v4.1h-4.3v-15.2c0-.7.4-1,1.1-1h10.6Zm.1,8.2c.5,0,.9-.1,1.2-.2s.5-.3.7-.6c.3-.3.4-.7.4-1.2s-.1-.9-.4-1.2c-.2-.2-.4-.4-.7-.5s-.7-.2-1.1-.2h-7.2c-.2,0-.3.1-.3.3v3.5h7.4Z" fill="#fff" stroke="url(#e3fy2deRAGk26-stroke)" stroke-width="1.5" stroke-miterlimit="10"/><path d="M187.7,132.8c-1,0-1.8-.1-2.5-.3s-1.2-.5-1.6-1c-.4-.4-.7-1-.9-1.7s-.3-1.4-.3-2.3v-10.9h4.4v10.5c0,.6.1,1,.3,1.2s.6.3,1.1.3h11.3v4.2h-11.8Z" fill="#fff" stroke="url(#e3fy2deRAGk27-stroke)" stroke-width="1.5" stroke-miterlimit="10"/><path d="M222.1,132c.1.1.1.2.2.4c0,.1.1.2.1.4h-4.9c0-.1-.1-.2-.1-.3s-.1-.2-.1-.3l-.9-2h-9.6l-.8,1.9c0,.1-.1.2-.1.3s-.1.2-.1.3h-5c0-.1.1-.2.1-.4c0-.1.1-.2.2-.4l5.8-12.9c.5-1,1.1-1.8,1.8-2.3.8-.5,1.7-.7,2.9-.7c1.1,0,2.1.2,2.8.7.8.5,1.4,1.2,1.8,2.3l5.9,13Zm-7.2-5.3l-2.5-5.8c-.1-.2-.2-.3-.3-.4s-.3-.1-.4-.1-.3,0-.4.1-.2.2-.3.4l-2.5,5.8h6.4Z" fill="#fff" stroke="url(#e3fy2deRAGk28-stroke)" stroke-width="1.5" stroke-miterlimit="10"/><path d="M238.4,116.5v4.3h-7.1v11.9h-4.4v-11.9h-7.1v-4.3h18.6Z" fill="#fff" stroke="url(#e3fy2deRAGk29-stroke)" stroke-width="1.5" stroke-miterlimit="10"/><path d="M257.1,116.5v4.3h-12c-.4,0-.7.2-.7.7v1.8h12.6v4h-12.6v5.4h-4.3v-13.2c0-2,1-3,2.9-3h14.1Z" fill="#fff" stroke="url(#e3fy2deRAGk30-stroke)" stroke-width="1.5" stroke-miterlimit="10"/><path d="M267.3,132.8c-1.5,0-2.7-.2-3.8-.7s-2-1.1-2.7-1.9c-.7-.7-1.2-1.5-1.5-2.5-.4-.9-.6-1.9-.6-3c0-1.2.2-2.3.7-3.3s1.1-1.9,1.9-2.7c.7-.7,1.6-1.2,2.6-1.6s2.1-.6,3.4-.6h3.4c1.3,0,2.5.2,3.4.6c1,.4,1.8.9,2.6,1.6.8.8,1.5,1.6,1.9,2.7.5,1,.7,2.1.7,3.3c0,1.1-.2,2.1-.6,3s-.9,1.8-1.5,2.5c-.8.8-1.7,1.5-2.7,1.9-1.1.5-2.3.7-3.8.7h-3.4Zm0-12c-.7,0-1.3.1-1.8.3s-.9.4-1.2.8c-.4.4-.7.8-.9,1.2-.2.5-.3,1-.3,1.5s.1,1,.3,1.4.4.8.7,1.2c.4.4.8.7,1.3.9s1.2.3,1.9.3h3.4c.8,0,1.4-.1,1.9-.3s1-.5,1.3-.9c.3-.3.6-.7.7-1.2.2-.4.3-.9.3-1.4s-.1-1.1-.3-1.5c-.2-.5-.5-.9-.9-1.2s-.8-.6-1.2-.8c-.5-.2-1.1-.3-1.8-.3h-3.4Z" fill="#fff" stroke="url(#e3fy2deRAGk31-stroke)" stroke-width="1.5" stroke-miterlimit="10"/><path d="M285.8,132.8h-4.3v-15.2c0-.7.4-1,1.1-1h11.4c1,0,1.8.1,2.5.4s1.2.7,1.7,1.1c.4.4.7.9.9,1.5s.3,1.1.3,1.7c0,.7-.1,1.3-.3,1.9s-.6,1.1-1.2,1.5c.5.3.9.7,1.2,1.2s.4,1.2.4,2.1v3.2c0,.4,0,.6,0,.9c0,.2,0,.4.1.7h-4.4c0-.4-.1-.7-.1-1.1v-3.2c0-.5-.1-.9-.4-1.1s-.7-.3-1.4-.3h-7.6v5.7Zm7.6-9.5c.3,0,.6,0,.7-.1.2-.1.4-.2.5-.4.2-.3.3-.5.3-.8c0-.4-.1-.7-.4-.9-.3-.3-.6-.4-1.2-.4h-7.3c-.2,0-.4.1-.4.4v2.4h7.8Z" fill="#fff" stroke="url(#e3fy2deRAGk32-stroke)" stroke-width="1.5" stroke-miterlimit="10"/><path d="M314.1,133.1c-.6,0-1.1-.1-1.6-.4-.5-.2-.9-.6-1.1-1.1l-4.9-10.2c0-.1-.2-.2-.3-.2s-.2,0-.3.1-.1.2-.1.3v11.1h-4.2v-11.9c0-.9.1-1.7.4-2.3s.6-1.1,1.1-1.5c.4-.3.8-.5,1.3-.7s1-.3,1.6-.3c1,0,1.9.3,2.5.8.6.6,1.2,1.3,1.6,2.2l3.7,8c.1.2.2.3.4.3s.3-.1.4-.3l3.7-8c.4-.9.9-1.6,1.6-2.2.6-.6,1.5-.8,2.5-.8.6,0,1.1.1,1.6.3s.9.4,1.3.7c.5.4.9.9,1.1,1.5s.4,1.3.4,2.3v11.9h-4.2v-11.1c0-.1,0-.3-.1-.3-.1-.1-.2-.1-.3-.1-.2,0-.3.1-.3.2L317,131.6c-.3.5-.6.9-1.1,1.1-.7.3-1.3.4-1.8.4Z" fill="#fff" stroke="url(#e3fy2deRAGk33-stroke)" stroke-width="1.5" stroke-miterlimit="10"/><path d="M140.7,145.3c1.3,0,2.5.2,3.4.6s1.8.9,2.6,1.6c.8.8,1.5,1.6,1.9,2.7.5,1,.7,2.1.7,3.3c0,1.1-.2,2.1-.6,3s-.9,1.8-1.5,2.5c-.8.8-1.7,1.5-2.7,1.9-1.1.5-2.3.7-3.8.7h-8.8c-.7,0-1.1-.3-1.1-1v-14.2c0-.7.4-1,1.1-1h8.8Zm-5.2,4.3c-.2,0-.3.1-.3.3v7c0,.2.1.3.3.3h5.2c.8,0,1.4-.1,1.9-.3s1-.5,1.3-.9c.3-.3.6-.7.7-1.2.2-.4.3-.9.3-1.4s-.1-1.1-.3-1.5c-.2-.5-.5-.9-.9-1.2s-.8-.6-1.2-.8c-.5-.2-1.1-.3-1.8-.3h-5.2Z" fill="#fff" stroke="url(#e3fy2deRAGk34-stroke)" stroke-width="1.5" stroke-miterlimit="10"/><path d="M168.4,145.3v4.3h-12.3c-.3,0-.4.1-.4.4v1.8h12.6v3.1h-12.6v2c0,.3.1.4.4.4h12.3v4.2h-14.8c-1.5,0-2.3-.8-2.3-2.3v-11.8c0-1.5.8-2.2,2.3-2.2h14.8Z" fill="#fff" stroke="url(#e3fy2deRAGk35-stroke)" stroke-width="1.5" stroke-miterlimit="10"/><path d="M170,146.1c-.1-.1-.1-.2-.2-.4c0-.1-.1-.2-.1-.4h5.1c0,.2.1.4.2.6l4.8,11.2c.1.2.2.3.3.4s.3.1.4.1.3,0,.4-.1.2-.2.3-.4l4.8-11.2c.1-.2.1-.4.2-.6h5.1c0,.1-.1.2-.1.4c0,.1-.1.2-.2.4L185.2,159c-.5,1-1.1,1.8-1.8,2.2-.8.5-1.7.7-2.9.7-2.2,0-3.8-1-4.7-3L170,146.1Z" fill="#fff" stroke="url(#e3fy2deRAGk36-stroke)" stroke-width="1.5" stroke-miterlimit="10"/><path d="M209.2,145.3v4.3h-12.3c-.3,0-.4.1-.4.4v1.8h12.6v3.1h-12.6v2c0,.3.1.4.4.4h12.3v4.2h-14.8c-1.5,0-2.3-.8-2.3-2.3v-11.8c0-1.5.8-2.2,2.3-2.2h14.8Z" fill="#fff" stroke="url(#e3fy2deRAGk37-stroke)" stroke-width="1.5" stroke-miterlimit="10"/><path d="M216.4,161.6c-1,0-1.8-.1-2.5-.3s-1.2-.5-1.6-1c-.4-.4-.7-1-.9-1.7s-.3-1.4-.3-2.3v-10.9h4.4v10.5c0,.6.1,1,.3,1.2s.6.3,1.1.3h11.3v4.2h-11.8Z" fill="#fff" stroke="url(#e3fy2deRAGk38-stroke)" stroke-width="1.5" stroke-miterlimit="10"/><path d="M237.5,161.6c-1.5,0-2.7-.2-3.8-.7s-2-1.1-2.7-1.9c-.7-.7-1.2-1.5-1.5-2.5-.4-.9-.6-1.9-.6-3c0-1.2.2-2.3.7-3.3s1.1-1.9,1.9-2.7c.7-.7,1.6-1.2,2.6-1.6s2.1-.6,3.4-.6h3.4c1.3,0,2.5.2,3.4.6c1,.4,1.8.9,2.6,1.6.8.8,1.5,1.6,1.9,2.7.5,1,.7,2.1.7,3.3c0,1.1-.2,2.1-.6,3s-.9,1.8-1.5,2.5c-.8.8-1.7,1.5-2.7,1.9-1.1.5-2.3.7-3.8.7h-3.4Zm0-12c-.7,0-1.3.1-1.8.3s-.9.4-1.2.8c-.4.4-.7.8-.9,1.2-.2.5-.3,1-.3,1.5s.1,1,.3,1.4.4.8.7,1.2c.4.4.8.7,1.3.9s1.2.3,1.9.3h3.4c.8,0,1.4-.1,1.9-.3s1-.5,1.3-.9c.3-.3.6-.7.7-1.2.2-.4.3-.9.3-1.4s-.1-1.1-.3-1.5c-.2-.5-.5-.9-.9-1.2s-.8-.6-1.2-.8c-.5-.2-1.1-.3-1.8-.3h-3.4Z" fill="#fff" stroke="url(#e3fy2deRAGk39-stroke)" stroke-width="1.5" stroke-miterlimit="10"/><path d="M263.4,145.3c1.2,0,2.1.2,2.9.5s1.4.7,2,1.3s1,1.2,1.3,2s.5,1.5.5,2.4c0,.7-.1,1.4-.4,2.1s-.6,1.3-1,1.8c-.6.7-1.3,1.2-2.1,1.6s-1.9.6-3.1.6h-7.5v4.1h-4.3v-15.2c0-.7.4-1,1.1-1h10.6Zm.1,8.2c.5,0,.9-.1,1.2-.2s.5-.3.7-.6c.3-.3.4-.7.4-1.2s-.1-.9-.4-1.2c-.2-.2-.4-.4-.7-.5s-.7-.2-1.1-.2h-7.2c-.2,0-.3.1-.3.3v3.5h7.4Z" fill="#fff" stroke="url(#e3fy2deRAGk40-stroke)" stroke-width="1.5" stroke-miterlimit="10"/><path d="M284.3,161.9c-.6,0-1.1-.1-1.6-.4-.5-.2-.9-.6-1.1-1.1l-4.9-10.2c0-.1-.2-.2-.3-.2s-.2,0-.3.1-.1.2-.1.3v11.1h-4.2v-11.9c0-.9.1-1.7.4-2.3s.6-1.1,1.1-1.5c.4-.3.8-.5,1.3-.7s1-.3,1.6-.3c1,0,1.9.3,2.5.8.6.6,1.2,1.3,1.6,2.2l3.7,8c.1.2.2.3.4.3s.3-.1.4-.3l3.7-8c.4-.9.9-1.6,1.6-2.2.6-.6,1.5-.8,2.5-.8.6,0,1.1.1,1.6.3s.9.4,1.3.7c.5.4.9.9,1.1,1.5s.4,1.3.4,2.3v11.9h-4.2v-11.1c0-.1,0-.3-.1-.3-.1-.1-.2-.1-.3-.1-.2,0-.3.1-.3.2l-4.9,10.2c-.3.5-.6.9-1.1,1.1-.7.3-1.3.4-1.8.4Z" fill="#fff" stroke="url(#e3fy2deRAGk41-stroke)" stroke-width="1.5" stroke-miterlimit="10"/><path d="M316.2,145.3v4.3h-12.3c-.3,0-.4.1-.4.4v1.8h12.6v3.1h-12.6v2c0,.3.1.4.4.4h12.3v4.2h-14.8c-1.5,0-2.3-.8-2.3-2.3v-11.8c0-1.5.8-2.2,2.3-2.2h14.8Z" fill="#fff" stroke="url(#e3fy2deRAGk42-stroke)" stroke-width="1.5" stroke-miterlimit="10"/><path d="M338.4,158.4c0,.6-.1,1.1-.3,1.6-.2.4-.4.8-.7,1.1s-.6.5-1,.6-.8.2-1.2.2c-.7,0-1.3-.1-1.8-.3s-1-.5-1.4-1l-8.9-10.3c-.1-.1-.3-.2-.4-.2s-.2,0-.3.1-.1.2-.1.3v11h-4.3v-12.8c0-.7.1-1.3.3-1.8s.4-.9.8-1.2.7-.5,1.2-.7c.5-.1,1-.2,1.5-.2.8,0,1.4.1,1.9.4.5.2,1,.7,1.6,1.2l7.9,9.5c.1.1.1.1.2.2.1,0,.1,0,.2,0c.2,0,.3-.1.3-.4v-10.5h4.2v13.2Z" fill="#fff" stroke="url(#e3fy2deRAGk43-stroke)" stroke-width="1.5" stroke-miterlimit="10"/><path d="M358.6,145.3v4.3h-7.1v11.9h-4.4v-11.9h-7.1v-4.3h18.6Z" fill="#fff" stroke="url(#e3fy2deRAGk44-stroke)" stroke-width="1.5" stroke-miterlimit="10"/><path d="M144.6,189.6c.1.1.1.2.2.4c0,.1.1.2.1.4h-4.9c0-.1-.1-.2-.1-.3s-.1-.2-.1-.3l-.9-2h-9.6l-.8,1.9c0,.1-.1.2-.1.3s-.1.2-.1.3h-5c0-.1.1-.2.1-.4c0-.1.1-.2.2-.4l5.8-12.9c.5-1,1.1-1.8,1.8-2.3.8-.5,1.7-.7,2.9-.7c1.1,0,2.1.2,2.8.7.8.5,1.4,1.2,1.8,2.3l5.9,13Zm-7.2-5.3l-2.5-5.8c-.1-.2-.2-.3-.3-.4s-.3-.1-.4-.1-.3,0-.4.1-.2.2-.3.4l-2.5,5.8h6.4Z" fill="#211fe1" stroke="url(#e3fy2deRAGk45-stroke)" stroke-width="1.5" stroke-miterlimit="10"/><path d="M166.8,187.2c0,.6-.1,1.1-.3,1.6-.2.4-.4.8-.7,1.1s-.6.5-1,.6-.8.2-1.2.2c-.7,0-1.3-.1-1.8-.3s-1-.5-1.4-1l-8.9-10.3c-.1-.1-.3-.2-.4-.2s-.2,0-.3.1-.1.2-.1.3v11h-4.3v-12.8c0-.7.1-1.3.3-1.8s.4-.9.8-1.2.7-.5,1.2-.7c.5-.1,1-.2,1.5-.2.8,0,1.4.1,1.9.4.5.2,1,.7,1.6,1.2l7.9,9.5c.1.1.1.1.2.2.1,0,.1,0,.2,0c.2,0,.3-.1.3-.4v-10.5h4.2v13.2Z" fill="#211fe1" stroke="url(#e3fy2deRAGk46-stroke)" stroke-width="1.5" stroke-miterlimit="10"/><path d="M179,174.1c1.3,0,2.5.2,3.4.6s1.8.9,2.6,1.6c.8.8,1.5,1.6,1.9,2.7.5,1,.7,2.1.7,3.3c0,1.1-.2,2.1-.6,3s-.9,1.8-1.5,2.5c-.8.8-1.7,1.5-2.7,1.9-1.1.5-2.3.7-3.8.7h-8.8c-.7,0-1.1-.3-1.1-1v-14.2c0-.7.4-1,1.1-1h8.8Zm-5.2,4.3c-.2,0-.3.1-.3.3v7c0,.2.1.3.3.3h5.2c.8,0,1.4-.1,1.9-.3s1-.5,1.3-.9c.3-.3.6-.7.7-1.2.2-.4.3-.9.3-1.4s-.1-1.1-.3-1.5c-.2-.5-.5-.9-.9-1.2s-.8-.6-1.2-.8c-.5-.2-1.1-.3-1.8-.3h-5.2Z" fill="#211fe1" stroke="url(#e3fy2deRAGk47-stroke)" stroke-width="1.5" stroke-miterlimit="10"/><path d="M211.8,190.7c-.6,0-1.1-.1-1.6-.4-.5-.2-.9-.6-1.1-1.1L204.2,179c0-.1-.2-.2-.3-.2s-.2,0-.3.1-.1.2-.1.3v11.1h-4.2v-11.9c0-.9.1-1.7.4-2.3s.6-1.1,1.1-1.5c.4-.3.8-.5,1.3-.7s1-.3,1.6-.3c1,0,1.9.3,2.5.8.6.6,1.2,1.3,1.6,2.2l3.7,8c.1.2.2.3.4.3s.3-.1.4-.3l3.7-8c.4-.9.9-1.6,1.6-2.2.6-.6,1.5-.8,2.5-.8.6,0,1.1.1,1.6.3s.9.4,1.3.7c.5.4.9.9,1.1,1.5.3.6.4,1.3.4,2.3v11.9h-4.2v-11.1c0-.1,0-.3-.1-.3-.1-.1-.2-.1-.3-.1-.2,0-.3.1-.3.2l-4.9,10.2c-.3.5-.6.9-1.1,1.1-.7.3-1.2.4-1.8.4Z" fill="#fff" stroke="url(#e3fy2deRAGk48-stroke)" stroke-width="1.5" stroke-miterlimit="10"/><path d="M247.2,189.6c.1.1.1.2.2.4c0,.1.1.2.1.4h-4.9c0-.1-.1-.2-.1-.3s-.1-.2-.1-.3l-.9-2h-9.6l-.8,1.9c0,.1-.1.2-.1.3s-.1.2-.1.3h-5c0-.1.1-.2.1-.4c0-.1.1-.2.2-.4l5.8-12.9c.5-1,1.1-1.8,1.8-2.3.8-.5,1.7-.7,2.9-.7c1.1,0,2.1.2,2.8.7.8.5,1.4,1.2,1.8,2.3l5.9,13Zm-7.2-5.3l-2.5-5.8c-.1-.2-.2-.3-.3-.4s-.3-.1-.4-.1-.3,0-.4.1-.2.2-.3.4l-2.5,5.8h6.4Z" fill="#fff" stroke="url(#e3fy2deRAGk49-stroke)" stroke-width="1.5" stroke-miterlimit="10"/><path d="M253.5,190.4h-4.3v-15.2c0-.7.4-1,1.1-1h11.5c1,0,1.8.1,2.5.4s1.2.7,1.7,1.1c.4.4.7.9.9,1.5s.3,1.1.3,1.7c0,.7-.1,1.3-.3,1.9s-.6,1.1-1.2,1.5c.5.3.9.7,1.2,1.2s.4,1.2.4,2.1v3.2c0,.4,0,.6,0,.9c0,.2,0,.4.1.7h-4.4c0-.4-.1-.7-.1-1.1v-3.3c0-.5-.1-.9-.4-1.1s-.7-.3-1.4-.3h-7.6v5.8Zm7.7-9.5c.3,0,.6,0,.7-.1.2-.1.4-.2.5-.4.2-.3.3-.5.3-.8c0-.4-.1-.7-.4-.9-.3-.3-.6-.4-1.2-.4h-7.3c-.2,0-.4.1-.4.4v2.4h7.8Z" fill="#fff" stroke="url(#e3fy2deRAGk50-stroke)" stroke-width="1.5" stroke-miterlimit="10"/><path d="M273.8,174.1v6.6l7.4-6c.3-.2.5-.4.7-.7h6.1c0,.1-.1.2-.2.2-.1.1-.2.1-.2.2l-8.9,6.9c-.1.1-.1.2-.1.3s0,.2.1.3l9.6,7.8c.1.1.2.2.3.3s.2.2.3.3h-6.5c-.2-.2-.4-.4-.7-.7l-7.8-6.5v7.2h-4.4v-16.2h4.3Z" fill="#fff" stroke="url(#e3fy2deRAGk51-stroke)" stroke-width="1.5" stroke-miterlimit="10"/><path d="M306.4,174.1v4.3h-12.3c-.3,0-.4.1-.4.4v1.8h12.6v3.1h-12.6v2c0,.3.1.4.4.4h12.3v4.2h-14.8c-1.5,0-2.3-.8-2.3-2.3v-11.8c0-1.5.8-2.2,2.3-2.2h14.8Z" fill="#fff" stroke="url(#e3fy2deRAGk52-stroke)" stroke-width="1.5" stroke-miterlimit="10"/><path d="M326.4,174.1v4.3h-7.1v11.9h-4.4v-11.9h-7.1v-4.3h18.6Z" fill="#fff" stroke="url(#e3fy2deRAGk53-stroke)" stroke-width="1.5" stroke-miterlimit="10"/><path d="M332.4,174.1v16.2h-4.4v-16.2h4.4Z" fill="#fff" stroke="url(#e3fy2deRAGk54-stroke)" stroke-width="1.5" stroke-miterlimit="10"/><path d="M355,187.2c0,.6-.1,1.1-.3,1.6-.2.4-.4.8-.7,1.1s-.6.5-1,.6-.8.2-1.2.2c-.7,0-1.3-.1-1.8-.3s-1-.5-1.4-1l-8.9-10.3c-.1-.1-.3-.2-.4-.2s-.2,0-.3.1-.1.2-.1.3v11h-4.3v-12.8c0-.7.1-1.3.3-1.8s.4-.9.8-1.2.7-.5,1.2-.7s1-.2,1.5-.2c.8,0,1.4.1,1.9.4.5.2,1,.7,1.6,1.2l7.9,9.5c.1.1.1.1.2.2.1,0,.1,0,.2,0c.2,0,.3-.1.3-.4v-10.5h4.2v13.2Z" fill="#fff" stroke="url(#e3fy2deRAGk55-stroke)" stroke-width="1.5" stroke-miterlimit="10"/><path d="M365.7,190.4c-1.5,0-2.7-.2-3.8-.7s-2-1.1-2.7-1.9c-.7-.7-1.2-1.5-1.5-2.5-.4-.9-.6-1.9-.6-3c0-1.2.2-2.3.7-3.3s1.1-1.9,1.9-2.7c.7-.7,1.6-1.2,2.6-1.6s2.1-.6,3.4-.6h8.8v4.3h-8.8c-.7,0-1.3.1-1.8.3s-.9.4-1.2.8c-.4.4-.7.8-.9,1.2-.2.5-.3,1-.3,1.5s.1,1,.3,1.4.4.8.7,1.2c.4.4.8.7,1.3.9s1.2.4,1.9.4h4.2c.2,0,.3-.1.3-.3v-4.3h4.3v7.8c0,.7-.3,1-1,1h-7.8Z" fill="#fff" stroke="url(#e3fy2deRAGk56-stroke)" stroke-width="1.5" stroke-miterlimit="10"/></g></svg>