<svg id="ef42ls0hKgC1" xmlns="http://www.w3.org/2000/svg" xmlns:xlink="http://www.w3.org/1999/xlink" viewBox="0 0 420.182 35.2" shape-rendering="geometricPrecision" text-rendering="geometricPrecision"><defs><linearGradient id="ef42ls0hKgC5-fill" x1="0.5" y1="0" x2="0.5" y2="1" spreadMethod="pad" gradientUnits="objectBoundingBox" gradientTransform="translate(0 0)"><stop id="ef42ls0hKgC5-fill-0" offset="100%" stop-color="#3a1fe6"/><stop id="ef42ls0hKgC5-fill-1" offset="100%" stop-color="#f79610"/></linearGradient></defs><g transform="translate(-12698.31543-1724.800049)"><g transform="translate(704-613.284973)"><path d="M29.219,3.085h31.017L44.448,28.036l-9.034,6.152h-57.044l3.872-6.152l4.689-7.4h18.154l2.839,5.937-11.1,1.463h23.06L31.241,10.011L34.6,14.27L31.972,8.85Zm29.253,0h56.958l2.925,6.109v.043l2.022,4.259-9.163,14.541h.086l-3.872,6.152h-55.409l-2.925-6.152l11.4-18.025L63.85,14.27L61.226,8.85ZM88.156,28.036l11.873-18.8h-14.454L74.519,26.7L64.452,28.036ZM122.528,3.085h30.972l-19.66,31.1h-24.562l15.229-24.177l3.4,4.259-2.624-5.42Zm29.6,0h30.972l7.356,15.4l3.743,7.959-1.549-6.324-.43-1.807l9.593-15.229h19.23l-19.66,31.1h-25.037l-2.624-5.463h.043L167.613,15.69l1.549,6.324.559,2.237-6.281,9.937h-24.564L154.1,10.011l3.4,4.259-2.624-5.42Zm103.72,0h30.972L271.892,26.7l-10.067,1.334h23.661L301.274,3.085h23.058l-2.71,4.259-4.775,7.614-8.26,13.078-9.034,6.152h-56.953l15.229-24.177l3.4,4.259L258.6,8.85Zm66.809,0h68.487l-2.667,4.259-1.721,2.667-.817,1.377-20.049,1.333-1.678-3.485h-14.455l-3.011,4.775-10.11,1.334h46.805L375.4,28.036l-.043.086-8.948,6.066h-57l3.872-6.152.516-.817.86-1.334l20-1.334l1.678,3.485h14.455l3.312-5.205l10.067-1.377h-46.762l7.227-11.443l3.4,4.259-2.624-5.42Z" transform="translate(12019.655273 2337.049072)" fill="#fff"/><path d="M23.874,0.134L26.627,5.9l2.624,5.42L25.9,7.06L14.539,25.085h-23.059l11.1-1.463-2.84-5.936h-18.154l-4.689,7.4-3.872,6.152h57.044L39.1,25.085L53.886,1.722l-.759-1.588h-29.253m29.253,0h1.764L53.886,1.722L55.881,5.9l2.624,5.42-3.356-4.26-11.4,18.025l2.925,6.152h55.409l3.872-6.152h-.086l9.163-14.541-2.022-4.259v-.043l-2.925-6.108h-56.958M82.811,25.085h-23.7l10.067-1.334L80.23,6.285h14.454l-11.873,18.8M117.183,0.134L119.937,5.9l2.624,5.42-3.4-4.259-15.228,24.176h24.567L147.373,1.374l-.592-1.24h-29.6m29.6,0h1.377l-.784,1.241l2.16,4.525l2.624,5.42-3.4-4.259-15.227,24.176h24.564l6.281-9.937-.559-2.237-1.549-6.324l6.152,13.035h-.043L171,31.237h25.037L215.7,0.134h-19.23l-9.593,15.229.43,1.807l1.549,6.324-3.743-7.959-7.358-15.401h-30.974m103.72,0L253.254,5.9l2.624,5.42-3.4-4.259-15.227,24.176h56.958l9.034-6.152l8.26-13.078l4.775-7.614L318.03,1.64l-.72-1.506h-21.381L280.141,25.085h-23.661l10.067-1.334L281.475,0.134h-30.975m66.809,0h1.678l-.958,1.506l2.034,4.26l2.624,5.42-3.4-4.259L312.062,18.5h46.762l-10.067,1.377-3.313,5.205h-14.454L329.312,21.6l-20,1.334-.86,1.334-.516.817-3.872,6.152h57l8.948-6.066.043-.086L378.1,12.394h-46.809l10.11-1.334l3.011-4.775h14.455l1.678,3.485l20.047-1.334.817-1.377l1.721-2.667l2.67-4.258h-68.49M20.625,-1.915h90.75l3.684,7.692v.047l1.058,2.228l1.466-2.328-3.648-7.638h65.112l7.026,14.708l9.266-14.708h24.079l-22.25,35.2h-27.456l-4.529-9.429-5.959,9.429h-29.4L147.18,5.723l-.057-.12-17.5,27.681h-84.243L41.5,25.127l-.894,1.412L30.7,33.285h-61.385l5.851-9.3l5.292-8.351h20.573l3.539,7.4h8.838L24.292,5.762ZM90.967,8.334h-9.61l-9.307,14.7h9.631ZM247.252,-1.915h37.941L269.422,23.036h9.591L294.8,-1.915h94.7L384.851,5.5l-1.7,2.635-1.351,2.274h-.023l-9.942,15.684-.236.472-9.912,6.719h-61.337l4.133-6.567-9.643,6.567h-61.3L250.9,5.723ZM357.579,8.334h-12.037l-1.269,2.012h14.274Zm-43.33,12.218h-5.72l-.251.4Zm31.652,0h-14.82l1.2,2.485h12.039Z" transform="translate(12025 2340)" fill="url(#ef42ls0hKgC5-fill)"/></g></g></svg>