<svg id="e0dA5lZwSuD1" xmlns="http://www.w3.org/2000/svg" xmlns:xlink="http://www.w3.org/1999/xlink" viewBox="0 0 633.668 35.2" shape-rendering="geometricPrecision" text-rendering="geometricPrecision"><defs><linearGradient id="e0dA5lZwSuD4-fill" x1="0.5" y1="0" x2="0.5" y2="1" spreadMethod="pad" gradientUnits="objectBoundingBox" gradientTransform="translate(0 0)"><stop id="e0dA5lZwSuD4-fill-0" offset="100%" stop-color="#261fe6"/><stop id="e0dA5lZwSuD4-fill-1" offset="100%" stop-color="#f79610"/></linearGradient></defs><g transform="translate(-12039.541992-1947.084961)"><path d="M22.47,3.085h62.074l2.925,6.108h-29.295l9.593,1.549-14.8,23.444h-24.604L44.151,9.193h-18.713l-.215-.344Zm63.838,0h56.955l2.925,6.108v.043L148.21,13.5l-9.163,14.54h.086l-3.872,6.151h-55.406L76.93,28.035l11.4-18.024l3.355,4.259-2.624-5.42Zm29.682,24.95l11.873-18.8h-14.454L102.353,26.7L92.287,28.035Zm34.371-24.95h30.972l-7.012,11.1-6.453,4.689-9.468,6.881l14.454-9.292l6.582-4.216l1.678-1.032l12.69-8.13h22.025l-10.109,6.5v-.047l-13.335,8.431-9.507,6.065l11.443-6.281l9.507,16.39-27.918.043-6.8-11.744-7.442,11.744h-24.557L152.339,10.01l3.4,4.259-2.624-5.42Zm64.44,0h63.709l-3.872,6.151h-32.738l-4.431,6.969h25.466l-3.872,6.151h-25.463L230.846,26.7L220.78,28.035h46.846l-3.872,6.151h-55.836l-2.753-5.764L216.78,10.011l3.355,4.259-2.581-5.42Zm62.891,0h30.973l7.356,15.4l3.743,7.958-1.549-6.324-.43-1.807l9.593-15.228h19.229l-19.659,31.1h-25.037l-2.624-5.463h.043l-6.151-13.034l1.549,6.324.559,2.237-6.281,9.937h-24.564L279.67,10.009l3.4,4.259-2.624-5.42Zm67.451,0h56.957l2.925,6.108v.043l2.022,4.259-9.163,14.54h.086l-3.87,6.152h-55.41l-2.925-6.151l11.4-18.024l3.355,4.259-2.62-5.422Zm29.682,24.95L386.7,9.236h-14.456L361.188,26.7l-10.066,1.334ZM409.2,3.085h30.973l6.453,13.507-.215.172-9.507,6.8l10.023-6.324l12.647-8h.043l9.765-6.151h20.261l-19.659,31.1h-19.19l6.238-9.894l5.42-3.872l9.464-6.8-13.55,8.56-.086.043-9.034,5.721-9.894,6.238h-5.936l-2.624-5.463h.043l-6.151-13.034l1.549,6.324.559,2.237-6.281,9.937h-24.565L411.174,10.01l3.4,4.259-2.624-5.42Zm79.066,0h30.972l-19.659,31.1h-24.567L490.24,10.011l3.4,4.259-2.624-5.42Zm29.553,0h63.709l-3.872,6.151-1.334,2.151L558.9,17.5l5.248-8.259h-19.233L533.86,26.7l-10.066,1.334h46.846l-3.872,6.151h-55.836l-2.753-5.764L519.794,10.01l3.355,4.259-2.581-5.42Zm62.891,0h68.484l-2.667,4.259-1.727,2.667-.817,1.377-20.046,1.334-1.678-3.484h-14.452L604.8,14.011l-10.109,1.334h46.8l-8.044,12.69-.043.086-8.948,6.065h-57l3.872-6.151.516-.817.86-1.334l20-1.334l1.678,3.484h14.454l3.312-5.205l10.066-1.377h-46.76l7.227-11.443l3.4,4.259-2.624-5.42Z" transform="translate(12020.319336 1946.047974)" fill="#fff"/><path d="M17.789,0.133L20.542,5.9l.215.344h18.713L23.683,31.235h24.606L63.087,7.79L53.494,6.242h29.295L79.863,0.133h-62.074m63.838,0L84.38,5.9L87,11.318L83.649,7.059l-11.4,18.024l2.925,6.151h55.406l3.871-6.151h-.086l9.163-14.54-2.022-4.259v-.042l-2.924-6.109h-56.955m29.682,24.95h-23.7L97.672,23.75L108.728,6.285h14.454l-11.873,18.8M145.68,0.133L148.433,5.9l2.624,5.42-3.4-4.259-15.226,24.174h24.563l7.442-11.744l6.8,11.744l27.918-.043-9.51-16.392L178.2,21.083l9.507-6.065l13.335-8.431v.043l9.32-5.989-.242-.508h-20.993l-12.69,8.13L174.76,9.3l-6.582,4.216L153.724,22.8l9.464-6.883l6.453-4.689l7.012-11.1h-30.973m64.44,0h1.032l-.79.508L212.873,5.9l2.581,5.42L212.1,7.059L200.484,25.471l2.753,5.764h55.836l3.872-6.151h-46.845l10.066-1.334l2.753-4.345h25.466l3.872-6.152h-25.467l4.431-6.969h32.736l3.407-5.412-.353-.738h-62.891m62.891,0h.817l-.465.738l2.4,5.026l2.624,5.42-3.4-4.259-15.225,24.176h24.563l6.281-9.937-.559-2.237-1.547-6.324l6.151,13.034h-.043l2.624,5.463h25.036L341.092,1.451l-.63-1.318h-17.762l-9.6,15.229.43,1.807l1.549,6.323-3.742-7.958-7.353-15.401h-30.973m67.451,0h1.463l-.833,1.318L343.215,5.9l2.624,5.42-3.355-4.259-11.4,18.024l2.925,6.151h55.406l3.872-6.151h-.087l9.163-14.54-2.022-4.259v-.044l-2.924-6.109h-56.955m29.682,24.95h-23.7l10.066-1.334L367.563,6.285h14.454l-11.873,18.8M404.515,0.133L407.268,5.9l2.624,5.42-3.4-4.259-15.226,24.174h24.563l6.28-9.937-.559-2.237L420,12.737l6.151,13.034h-.043l2.624,5.463h5.936L444.564,25l9.034-5.721.086-.043l13.55-8.56-9.464,6.8-5.42,3.871-6.238,9.894h19.188L484.174,1.374l-.592-1.24h-18.882l-9.765,6.152h-.043l-12.647,8-10.027,6.324l9.507-6.8.215-.172-6.452-13.505h-30.973m79.066,0h1.377l-.784,1.24l2.16,4.527l2.624,5.42-3.4-4.259-15.226,24.174h24.563l18.85-29.822-.611-1.28h-29.553m29.553,0h1.42l-.809,1.279L515.887,5.9l2.581,5.42-3.355-4.259L503.5,25.471l2.753,5.764h55.836l3.871-6.151h-46.847l10.066-1.334L540.235,6.285h19.229l-5.248,8.259l17.422-6.108l1.334-2.151l3.406-5.413-.353-.738h-62.891m62.891,0h.817l-.465.738l2.4,5.026l2.624,5.42L578,7.059L570.777,18.5h46.76l-10.066,1.377-3.312,5.205h-14.459L588.027,21.6l-20,1.334-.86,1.333-.516.817-3.872,6.151h57l8.948-6.065.043-.086l8.044-12.69h-46.8l10.109-1.334l3.011-4.775h14.446l1.678,3.484L639.3,8.436l.817-1.377l1.721-2.667l2.671-4.259h-68.484M14.541,-1.915h125.331l3.683,7.692v.047l1.057,2.227l1.466-2.328-3.648-7.638h37.94l-5.534,8.759.516-.317l13.176-8.442h116.747L312.3,12.793l9.265-14.708h77.142l3.683,7.692v.047l1.058,2.227l1.466-2.328-3.648-7.638h35.512L443.1,11.318l11.194-7.082h.045l9.761-6.151h184.1L643.563,5.5l-1.7,2.637-1.347,2.269h-.023L630.55,26.093l-.236.472-9.914,6.718h-115.441l-3.8-7.95L513.53,5.723l-.039-.081-17.468,27.641h-29.4l17.36-27.56-.057-.12-17.5,27.68h-24.026l4.712-7.475-1.456.922-10.395,6.553h-7.817l-4.529-9.429-5.959,9.429h-84.24l-3.966-8.34L340.881,5.762l-.039-.081-17.447,27.6h-27.454l-4.529-9.429-5.959,9.429h-83.508l-.023-.047-31.871.049-5.7-9.842-6.236,9.84h-84.235l-3.966-8.34L80.446,8.29h-15.253L49.418,33.283h-29.452L35.753,8.29h-16.131l-.878-1.405-.05-.1ZM210.519,5.723l-1-2.1-10.52,6.76v-.083l-7.018,4.437l6.3,10.865-.131-.274Zm62.891,0l-.293-.614-2.029,3.225h-32.742l-1.826,2.872h25.446l-6.45,10.248h-25.47l-1,1.581h33.463Zm303.014,0l-.293-.614-1.422,2.261L573,10.13l-23.68,8.3l6.417-10.1h-14.375l-9.306,14.7h33.464l1.341-2.078l6.1-.407h-5.9Zm-456.96,2.61h-9.61l-9.306,14.7h9.631Zm258.835,0h-9.61l-9.306,14.7h9.631Zm237.992,0h-12.035l-1.269,2.012h14.274ZM604.615,20.55h-14.815l1.2,2.485h12.042Z" transform="translate(12025 1949)" fill="url(#e0dA5lZwSuD4-fill)"/></g></svg>