<svg id="esdR6wjYtiG1" xmlns="http://www.w3.org/2000/svg" xmlns:xlink="http://www.w3.org/1999/xlink" viewBox="0 0 490.624 35.2" shape-rendering="geometricPrecision" text-rendering="geometricPrecision"><defs><linearGradient id="esdR6wjYtiG4-fill" x1="0.5" y1="0" x2="0.5" y2="1" spreadMethod="pad" gradientUnits="objectBoundingBox" gradientTransform="translate(0 0)"><stop id="esdR6wjYtiG4-fill-0" offset="100%" stop-color="#3a1fe6"/><stop id="esdR6wjYtiG4-fill-1" offset="100%" stop-color="#f79610"/></linearGradient></defs><g transform="translate(-12004.390625-2132.084961)"><path d="M1.7,3.085h63.755L67.52,7.344L58.013,22.358h-6.281l5.636,11.83h-21.6L30.7,23.562l-.559-1.2h-9.641l-7.485,11.83h-24.565L3.679,10.011l3.4,4.259L4.453,8.85ZM39.686,14.872l3.571-5.636h-14.457l-4.431,6.969h23.7ZM68.6,3.085h56.958l2.925,6.109v.043L130.5,13.5l-9.163,14.541h.086l-3.872,6.152h-55.409l-2.925-6.152l11.4-18.025l3.356,4.259L71.349,8.85ZM98.279,28.036l11.873-18.8h-14.452L84.642,26.7L74.575,28.036Zm39.922,0h23.274l-3.442-7.184-8.389,5.679Zm47.838,6.152h-69.692l35.19-23.919l3.7,4.689-2.581-5.42-3.1-6.453h21.6Zm13.508-31.1h56.953l2.925,6.109v.043l2.022,4.259-9.163,14.541h.086l-3.87,6.148h-62.2l15.229-24.177l3.4,4.259L202.3,8.85Zm29.64,24.951L241.1,9.237h-14.451L215.593,26.7l-10.067,1.334ZM263.56,3.085h30.974l6.453,13.508-.215.172-9.507,6.8l10.023-6.324l12.648-8h.043l9.765-6.152h20.262l-19.66,31.1h-19.187l6.238-9.894l5.42-3.872l9.464-6.8-13.551,8.561-.086.043-9.034,5.722-9.894,6.238h-5.936l-2.624-5.463h.043L279.047,15.69l1.549,6.324.559,2.237-6.281,9.937h-24.564l15.229-24.177l3.4,4.259-2.624-5.42Zm82.3,24.951h23.274l-3.442-7.184-8.392,5.679Zm47.838,6.152h-69.698l35.19-23.919l3.7,4.689-2.581-5.42-3.1-6.453h21.6ZM407.2,3.085h63.755l2.065,4.259-9.507,15.014h-37.513l-7.485,11.83h-24.563l15.229-24.177l3.4,4.259-2.624-5.42Zm37.986,11.787l3.571-5.636h-14.457l-4.431,6.969h23.7Z" transform="translate(12019.652344 2131.049072)" fill="#fff"/><path d="M-3.647,0.134L-0.894,5.9L1.73,11.32l-3.4-4.259L-16.9,31.237h24.567l7.485-11.83h9.636l.559,1.2l5.076,10.626h21.6l-5.636-11.83h6.281L62.172,4.392L60.107,0.134h-63.754m46.375,13.12h-23.7l4.431-6.969h14.45l-3.571,5.636l8.389,1.334M63.248,0.134L66,5.9l2.624,5.42L65.27,7.06L53.87,25.085l2.93,6.152h54.2l2.105-1.431l2.971-4.721h-.086l9.163-14.541-2.022-4.259v-.043l-2.925-6.108h-56.958M92.931,25.085h-23.7l10.066-1.334L90.35,6.285h14.45l-11.873,18.8M144.211,0.134l3.1,6.453l2.581,5.42-3.7-4.689L113.1,29.806l-.9,1.431h68.487L165.806,0.134h-21.6m11.916,24.951h-23.269L144.3,23.579l8.389-5.679l3.442,7.184M194.2,0.134L196.952,5.9l2.624,5.42-3.4-4.259-15.227,24.176h62.206l3.872-6.152h-.086L256.1,10.544l-2.022-4.259v-.043l-2.921-6.108h-56.957m29.64,24.951h-23.661l10.067-1.334L221.3,6.285h14.455l-11.916,18.8M258.212,0.134L260.965,5.9l2.624,5.42-3.4-4.259-15.227,24.176h24.564l6.281-9.938-.559-2.237-1.548-6.324l6.152,13.035h-.043l2.624,5.464h5.937L298.263,25l9.034-5.722.086-.043l13.551-8.561-9.464,6.8-5.42,3.872-6.238,9.894h18.843l.6-.41L338.659,0.134h-20.259l-9.765,6.152h-.043l-12.648,8-10.023,6.324l9.507-6.8.215-.172-6.457-13.504h-30.974m93.653,0l3.1,6.453l2.581,5.42-3.7-4.689-34.588,23.508-.259.41h69.347L373.461,0.134h-21.6m11.916,24.951h-23.269l11.443-1.506L360.34,17.9l3.442,7.184m38.072-24.95L404.608,5.9l2.624,5.42-3.4-4.259L388.6,31.237h24.564l7.485-11.83h37.513l9.507-15.014-2.06-4.259h-63.755m46.375,13.121h-23.7l4.431-6.969h14.455l-3.571,5.636l8.389,1.334M-6.9,-1.915h128.4l3.684,7.692v.047l2.307,4.86L119.914,22.7L144.688,5.862l-3.733-7.777h26.145l.557,1.164l13.394,27.987L194.6,5.723l-3.648-7.638h61.5l3.684,7.692v.047l1.039,2.189l1.442-2.289-3.648-7.638h35.514L296.8,11.319l11.194-7.082h.045l9.761-6.152h24.572L326.252,23.6L352.343,5.862l-3.733-7.777h26.142L388.7,27.236L402.254,5.723l-3.648-7.638h68.287l3.122,6.44-10.721,16.93h-37.512L414.3,33.285h-118.2l4.713-7.476-1.456.922-10.4,6.554h-7.817l-4.529-9.429-5.96,9.429h-215.151l-3.966-8.341l2.207-3.49h-4.112l5.636,11.83h-26.133l-5.651-11.83h-7.2L8.795,33.285h-29.4L-3.248,5.723ZM34.186,8.334h-9.606l-1.826,2.872h9.613Zm66.9,0h-9.61l-9.307,14.7h9.631Zm130.944,0h-9.6l-9.307,14.7h9.59Zm207.656,0h-9.607l-1.826,2.872h9.613Zm-79.159,14.7L359.52,20.93l-3.112,2.107Zm-207.655,0l-1.009-2.107-3.112,2.107Z" transform="translate(12025 2134)" fill="url(#esdR6wjYtiG4-fill)"/></g></svg>