<svg id="epqfC65ONkS1" xmlns="http://www.w3.org/2000/svg" xmlns:xlink="http://www.w3.org/1999/xlink" viewBox="0 0 534.379 35.2" shape-rendering="geometricPrecision" text-rendering="geometricPrecision"><defs><linearGradient id="epqfC65ONkS4-fill" x1="0.5" y1="0" x2="0.5" y2="1" spreadMethod="pad" gradientUnits="objectBoundingBox" gradientTransform="translate(0 0)"><stop id="epqfC65ONkS4-fill-0" offset="100%" stop-color="#1f28e6"/><stop id="epqfC65ONkS4-fill-1" offset="100%" stop-color="#f79610"/></linearGradient></defs><g transform="translate(-11987.324219-1676.084961)"><path d="M-2.3,28.631h23.828L18,21.276L9.416,27.089Zm48.978,6.3h-71.353L11.354,10.44l3.788,4.8L12.5,9.692L9.328,3.085h22.11ZM60.508,3.085h65.274l-3.964,6.3-1.409,2.2-14.05,4.933h10.923l2.07,4.36-4.845,7.752h.088l-3.964,6.3h-63.689L62.534,10.176l3.48,4.36-2.687-5.55ZM94.642,22.641l-.837-1.674-12.993,4.581-16.781,5.858L76.1,28.587l-.044.044h14.8ZM82.618,18.325l8.5-3.039h.044l16.781-5.9h-19.687Zm42.239-15.24h58.315l3,6.254v.044l2.07,4.36L178.86,28.63h.088l-3.964,6.3h-56.734l-3-6.3l11.672-18.455l3.435,4.36-2.687-5.55Zm30.391,25.546L167.4,9.383h-14.8L141.28,27.265L130.974,28.63ZM190.44,3.085h31.712L206.869,27.266l-10.306,1.365h24.225L236.951,3.085h23.608l-2.775,4.36-4.889,7.8-8.457,13.39-9.249,6.3h-58.315l15.592-24.753l3.48,4.36-2.687-5.55Zm69.106,0h63.554l3,6.254h-30l9.822,1.586-15.151,24h-25.191l16.164-25.59h-19.159l-.22-.352Zm103.153,0h31.712L379.128,27.266l-10.306,1.365h24.225L409.21,3.085h23.608l-2.775,4.36-4.889,7.8L416.7,28.631l-9.249,6.3h-58.318l15.592-24.753l3.479,4.36-2.687-5.55Zm68.4,0h70.121l-2.731,4.36-1.762,2.731-.837,1.409-20.525,1.365-1.718-3.568h-14.8l-3.083,4.889-10.35,1.365h47.921L485.1,28.631l-.044.088-9.161,6.21h-58.36l3.964-6.3.529-.837.881-1.365l20.481-1.365l1.718,3.568h14.8L463.3,23.3l10.3-1.408h-47.873l7.4-11.716l3.48,4.36-2.687-5.55Z" transform="translate(12017.453125 1674.677979)" fill="#fff"/><path d="M468.347,32.607l9.161-6.21.044-.088l8.236-12.993h-47.92l10.35-1.365l3.082-4.89h14.8l1.718,3.568l20.525-1.365.837-1.409l1.762-2.731l2.731-4.36h-68.4L424.29,2.3l2.082,4.36l2.687,5.55-3.48-4.36-7.4,11.716h47.877L455.75,20.979l-3.392,5.329h-14.8L435.84,22.74l-20.481,1.365-.881,1.365-.529.837-3.964,6.3h58.359m-68.446,0l9.249-6.3l8.457-13.39l4.889-7.8L424.29,2.3l-.736-1.537h-21.89L385.5,26.309h-24.226l10.306-1.365L386.864,0.763h-31.712l2.819,5.9l2.687,5.55-3.48-4.36-15.592,24.754h58.314m-116.675,0l15.151-24-9.822-1.586h29.995l-3-6.254h-62.537l-.579.909l2.385,4.993.22.352h19.162l-16.164,25.59h25.194m-55.584,0l9.249-6.3l8.457-13.39l4.889-7.8l2.2-3.451L252,0.763h-22.6L213.24,26.309h-24.225l10.306-1.365L214.6,0.763h-31.707l2.819,5.9l2.687,5.55-3.48-4.36-15.592,24.754h58.315m-60.209,0l3.964-6.3h-.088l9.382-14.887-2.07-4.36v-.043l-3-6.254h-57.39l-.526.836l2.42,5.066l2.687,5.55-3.436-4.36-11.668,18.454l2.995,6.3h56.73M145.058,7.061h14.8L147.7,26.309h-24.268l10.306-1.365l11.32-17.882M103.084,32.607l3.964-6.3h-.088l4.845-7.752-2.07-4.36h-10.924l14.05-4.933l1.409-2.2L117.709,1.6l-.4-.836h-64.348l2.819,5.9l2.687,5.55c0,0-1.809041-4.453256-3.48-4.36-8.762692.489042-15.592,24.753-15.592,24.753h63.689M86.258,18.645l.837,1.674-3.788,5.99h-14.8l.044-.044-12.067,2.819l16.781-5.858l12.993-4.581M80.709,7.061h19.691l-16.781,5.9h-.044L75.071,16l5.638-8.941M39.13,32.607L23.891,0.763h-22.11L4.952,7.37l2.643,5.55-3.788-4.8-36.029,24.487h71.352M10.457,18.953l3.524,7.355h-23.828L1.869,24.767l8.589-5.814m458.4,15.332h-61.909l5.584-8.872.537-.85l1.338-2.074l18.609-1.241h-17.881l9.305-14.733-.361-.755-.164.257-4.89,7.8L410.383,27.5l-9.965,6.786h-61.872L356.039,6.514l-3.548-7.429h37.419L373.763,24.631h10.812l16.164-25.546h95.961l-4.351,6.948-1.744,2.7-1.272,2.143-11.4.759h10.907l-9.824,15.5-.2.4ZM438.61,24.631h12.824l2.153-3.383h-16.602ZM450.4,11.638h16.043l-1.4-2.9h-12.816ZM284.152,34.285h-29.163L271.153,8.7h-17.045l-.764-1.221-1.121-2.347-.566.89-4.89,7.8L238.124,27.5l-9.965,6.786h-118.516l-2.424-5.1-3.209,5.1h-141.685L2.8,6.771l-3.686-7.686h25.834l14.5,30.294l14.4-22.865L50.3,-0.915h126.382L180.3,6.636v.047l1.451,3.055l2.031-3.225-3.55-7.428h37.418L201.5,24.631h10.812L228.48,-0.915h88.132l4.6,9.61h-20.912Zm-148.23-9.654h10.854L156.813,8.739h-10.831Zm-61.6,0h8.057l2.312-3.655Zm-69.263,0h6.253l-1.531-3.2ZM108.655,12.519h2.14l1.565,3.3l5.857-9.26-.709-1.485-1.823,2.9-1.721,2.689ZM81.634,8.739l-2.552,4.047l4.2-1.5h.048L90.57,8.74Z" transform="translate(12025 1677)" fill="url(#epqfC65ONkS4-fill)"/></g></svg>